<svg width="340.999756" height="105.773926" viewBox="0 0 341 105.774" fill="none" xmlns="http://www.w3.org/2000/svg" xmlns:xlink="http://www.w3.org/1999/xlink">
	<desc>
			Created with Pixso.
	</desc>
	<defs/>
	<g style="mix-blend-mode:normal">
		<path id="NANJING UNIVERSITY" d="M173.53 99.62C172.78 100.4 171.48 100.98 169.9 100.98C166.83 100.98 164.62 98.72 164.62 94.91C164.62 91.12 166.89 88.82 170 88.82C171.63 88.82 172.7 89.55 173.37 90.27L172.57 91.23C171.98 90.61 171.23 90.11 170.03 90.11C167.67 90.11 166.14 91.94 166.14 94.87C166.14 97.82 167.53 99.68 170.06 99.68C170.89 99.68 171.71 99.43 172.17 98.99L172.17 95.92L169.69 95.92L169.69 94.69L173.53 94.69L173.53 99.62ZM251.15 97.65C251.15 99.5 249.61 100.98 247.16 100.98C245.5 100.98 244.08 100.3 243.05 99.23L243.95 98.23C244.78 99.1 245.96 99.68 247.18 99.68C248.71 99.68 249.64 98.91 249.64 97.76C249.64 96.56 248.79 96.18 247.69 95.68L245.99 94.94C244.91 94.48 243.61 93.65 243.61 91.94C243.61 90.13 245.18 88.82 247.31 88.82C248.7 88.82 249.93 89.41 250.76 90.27L249.98 91.22C249.26 90.55 248.4 90.11 247.31 90.11C245.98 90.11 245.11 90.78 245.11 91.84C245.11 92.98 246.14 93.41 247.05 93.79L248.73 94.51C250.09 95.1 251.15 95.91 251.15 97.65ZM103.31 100.77L101.9 100.77L101.9 89.03L103.44 89.03L107.7 96.43L108.95 98.85L109.03 98.85C108.95 97.66 108.84 96.35 108.84 95.14L108.84 89.03L110.25 89.03L110.25 100.77L108.73 100.77L104.46 93.36L103.19 90.94L103.13 90.94C103.19 92.13 103.31 93.38 103.31 94.61L103.31 100.77ZM114.36 100.77L112.86 100.77L116.84 89.03L118.49 89.03L122.47 100.77L120.91 100.77L119.79 97.18L115.5 97.18L114.36 100.77ZM126.49 100.77L125.08 100.77L125.08 89.03L126.62 89.03L130.89 96.43L132.14 98.85L132.22 98.85C132.14 97.66 132.03 96.35 132.03 95.14L132.03 89.03L133.44 89.03L133.44 100.77L131.92 100.77L127.64 93.36L126.38 90.94L126.31 90.94C126.38 92.13 126.49 93.38 126.49 94.61L126.49 100.77ZM143 97.33C143 99.34 142.07 100.98 139.79 100.98C138.3 100.98 137.24 100.34 136.55 99.12L137.61 98.37C138.14 99.3 138.8 99.68 139.64 99.68C140.9 99.68 141.53 98.96 141.53 97.18L141.53 89.03L143 89.03L143 97.33ZM148.62 100.77L147.13 100.77L147.13 89.03L148.62 89.03L148.62 100.77ZM154.19 100.77L152.78 100.77L152.78 89.03L154.32 89.03L158.58 96.43L159.83 98.85L159.91 98.85C159.83 97.66 159.72 96.35 159.72 95.14L159.72 89.03L161.13 89.03L161.13 100.77L159.61 100.77L155.34 93.36L154.07 90.94L154.01 90.94C154.07 92.13 154.19 93.38 154.19 94.61L154.19 100.77ZM190.2 95.92C190.2 99.7 188.38 100.98 185.98 100.98C183.59 100.98 181.77 99.7 181.77 95.92L181.77 89.03L183.26 89.03L183.26 95.97C183.26 98.8 184.46 99.68 185.98 99.68C187.55 99.68 188.78 98.8 188.78 95.97L188.78 89.03L190.2 89.03L190.2 95.92ZM195.72 100.77L194.32 100.77L194.32 89.03L195.85 89.03L200.12 96.43L201.37 98.85L201.45 98.85C201.37 97.66 201.26 96.35 201.26 95.14L201.26 89.03L202.67 89.03L202.67 100.77L201.15 100.77L196.87 93.36L195.61 90.94L195.55 90.94C195.61 92.13 195.72 93.38 195.72 94.61L195.72 100.77ZM208.32 100.77L206.83 100.77L206.83 89.03L208.32 89.03L208.32 100.77ZM216.35 100.77L214.64 100.77L210.89 89.03L212.44 89.03L214.35 95.39C214.76 96.77 215.03 97.89 215.48 99.27L215.55 99.27C215.98 97.89 216.27 96.77 216.68 95.39L218.57 89.03L220.07 89.03L216.35 100.77ZM229.58 100.77L222.64 100.77L222.64 89.03L229.4 89.03L229.4 90.29L224.12 90.29L224.12 93.97L228.57 93.97L228.57 95.23L224.12 95.23L224.12 99.5L229.58 99.5L229.58 100.77ZM234.49 100.77L233 100.77L233 89.03L236.68 89.03C239.07 89.03 240.78 89.89 240.78 92.34C240.78 94.16 239.72 95.25 238.12 95.63L241.13 100.77L239.45 100.77L236.6 95.79L234.49 95.79L234.49 100.77ZM255.9 100.77L254.41 100.77L254.41 89.03L255.9 89.03L255.9 100.77ZM263.99 100.77L262.51 100.77L262.51 90.29L258.95 90.29L258.95 89.03L267.55 89.03L267.55 90.29L263.99 90.29L263.99 100.77ZM273.75 100.77L272.27 100.77L272.27 96.21L268.75 89.03L270.33 89.03L271.83 92.35C272.22 93.22 272.57 94.03 272.99 94.91L273.05 94.91C273.47 94.03 273.87 93.22 274.22 92.35L275.74 89.03L277.27 89.03L273.75 96.21L273.75 100.77ZM117.61 90.24C117.24 91.62 116.86 92.88 116.44 94.21L115.87 96L119.42 96L118.86 94.21C118.43 92.88 118.06 91.6 117.67 90.24L117.61 90.24ZM234.49 90.24L234.49 94.59L236.46 94.59C238.3 94.59 239.3 93.86 239.3 92.34C239.3 90.78 238.3 90.24 236.46 90.24L234.49 90.24Z" fill="#FFFFFF" fill-opacity="1.000000" fill-rule="evenodd"/>
	</g>
	<g style="mix-blend-mode:normal">
		<path id="路径 1" d="M0.03 2.41C4.47 5 10.32 6.83 17.33 6.89C24.52 6.98 30.61 5.57 35.01 2.79C39.45 5.56 45.61 7 52.72 6.89C59.6 6.8 65.66 5 70.04 2.45C70.12 12.77 69.88 22.62 69.88 32.89C69.88 43.1 70.43 53.7 67.82 61.5C66.54 65.33 64.63 68.54 62.47 71.55C60.34 74.53 57.7 77.14 54.86 79.3C51.92 81.54 48.51 83.13 45.05 84.88C42.09 86.37 39.1 87.91 36.21 89.48C35.81 89.71 35.34 89.85 35.05 90.24C33.49 89.19 31.79 88.35 30.11 87.47C28.42 86.6 26.71 85.71 25.01 84.84C23.26 83.95 21.51 83.18 19.85 82.3C18.19 81.42 16.68 80.4 15.2 79.26C9.38 74.81 4.9 69.06 2.23 61.4C0.87 57.45 0.48 52.93 0.25 48.03C0.03 43.2 0.14 38.06 0.14 33.05C0.14 22.84 0 12.81 0 2.52C-0.01 2.47 -0.01 2.41 0.03 2.41ZM33.25 6.08C27.14 8.78 17.51 9.56 9.7 7.98C7.25 7.49 5.03 6.83 3.1 5.93C2.84 5.81 2.55 5.6 2.23 5.63C2.14 15.13 2.39 24.98 2.39 34.13C2.39 38.89 2.16 43.76 2.35 48.29C2.55 52.8 3.06 57.08 4.3 60.76C5.52 64.37 7.14 67.48 9.17 70.31C12.2 74.54 15.87 78.06 20.51 80.58C22.07 81.41 23.72 82.15 25.39 82.92C28.64 84.45 31.89 86.04 35.12 87.61C38.35 86.01 41.62 84.49 44.83 82.92C46.48 82.13 48.14 81.44 49.69 80.6C52.78 78.96 55.41 76.76 57.74 74.29C61.23 70.61 64.08 66.04 65.8 60.72C68.22 53.25 67.72 43.8 67.72 34.24C67.72 24.61 67.75 15.12 67.82 5.63C67.52 5.63 67.24 5.81 66.96 5.93C64.95 6.82 62.79 7.55 60.37 8.03C54.7 9.13 47.74 8.96 42.39 7.8C39.64 7.2 37.2 6.27 35.05 5.18C34.6 5.53 33.94 5.77 33.25 6.08Z" fill="#FFFFFF" fill-opacity="1.000000" fill-rule="evenodd"/>
	</g>
	<g style="mix-blend-mode:normal">
		<path id="路径 2" d="M35.8 9.08C38.81 9.4 41.07 10.97 42.43 13.2C42.61 13.5 42.91 13.97 42.89 14.2C42.84 14.44 42.66 14.64 42.43 14.62C42.13 14.61 42.05 14.2 41.83 13.83C40.68 11.82 38.83 10.44 36.17 9.97C36.3 10.58 36.58 11.17 36.81 11.81C37.04 12.43 37.27 13.08 37.49 13.69C37.59 13.8 37.47 13.95 37.49 14.1C37.97 14.06 38.5 14.09 38.42 14.62C38.32 15.31 36.26 14.79 35.5 14.96C35.41 15.49 35.49 16.19 35.46 16.78C35.88 17.03 37.87 16.57 38.27 16.86C38.39 16.94 38.44 17.18 38.42 17.31C38.31 18.06 36.3 17.45 35.5 17.64C35.38 18.27 35.67 19.14 35.05 19.18C34.45 19.22 34.62 18.39 34.6 17.68C33.85 17.41 31.8 18.07 31.64 17.35C31.43 16.32 33.84 17.07 34.56 16.78C34.63 16.27 34.63 15.5 34.56 14.99C33.89 14.74 31.78 15.34 31.64 14.66C31.53 14.13 32.06 14.04 32.55 14.1C32.65 14 32.49 13.88 32.55 13.72C33.03 12.52 33.43 11.22 33.94 10.01C30.72 10.45 28.7 12.4 27.68 15.13C28.03 15.12 28.56 14.92 29.25 14.8C29.99 14.68 31.48 14.34 31.05 15.36C30.44 15.56 29.75 15.54 29.13 15.67C28.52 15.79 27.96 16 27.45 16.19C27.35 16.38 27.32 16.64 27.29 16.91C27.84 16.82 28.4 16.59 29.13 16.45C29.65 16.36 31.2 15.99 31.05 16.83C30.98 17.2 30.53 17.15 30.18 17.17C29.18 17.23 27.92 17.56 27.29 17.91C27.26 18.05 27.29 18.34 27.33 18.51C27.95 18.35 28.39 18.22 29.17 18.1C29.65 18.03 30.82 17.7 30.93 18.25C31.09 19.03 29.72 18.8 29.06 18.92C28.35 19.05 27.92 19.26 27.49 19.4C27.65 19.77 27.65 20.24 27.29 20.3C26.54 20.47 26.46 18.71 26.43 17.99C26.4 16.89 26.56 15.92 26.78 15.18C27.77 11.79 30.41 9.62 34.27 9.04C34.55 8.63 34.55 7.81 35.09 7.87C35.57 7.91 35.52 8.72 35.8 9.08ZM35.55 10.83C35.42 10.51 35.3 9.81 34.94 9.87C34.3 11.17 33.88 12.69 33.32 14.1C33.64 14.11 34.25 14.09 34.56 14.1C34.32 12.84 35.76 12.77 35.46 14.1L36.74 14.1C36.38 13.13 35.92 11.88 35.55 10.83Z" fill="#FFFFFF" fill-opacity="1.000000" fill-rule="evenodd"/>
	</g>
	<g style="mix-blend-mode:normal">
		<path id="路径 3" d="M17.38 12.33C17.56 12.47 17.31 12.7 17.41 12.85C17.95 12.74 18.63 13.16 18.68 13.45C18.76 13.83 18.34 14.23 18.45 14.73C19.37 15.31 19.59 16.59 20.63 17.06C21.09 17.91 21.39 19.21 21.19 20.39C21.04 21.28 20.15 21.38 20.33 22.56C20.41 23.06 20.72 24.08 21.08 24.25C21.32 24.35 21.64 24.22 21.87 24.39C22.06 24.62 21.97 25.12 21.83 25.34C21.11 25.47 20.84 26.23 19.96 25.93C19.62 25.81 19.04 25.43 18.87 25.14C18.76 24.96 18.77 24.7 18.68 24.51C18.5 24.08 18.16 23.83 17.97 23.53C17.43 23.7 15.76 23.41 16.02 24.29C16.15 24.68 17.47 24.48 17.04 25.48C16.88 25.83 15.74 26.31 15.31 26.41C15.16 26.44 14.88 26.46 14.78 26.45C14.64 26.43 14.52 26.3 14.34 26.26C13.98 26.19 13.49 26.35 13.1 26.26C12.87 26.22 12.21 25.75 11.98 25.55C11.83 25.41 11.52 25.04 11.46 24.88C11.29 24.47 11.4 24.13 10.96 23.94C10.77 23.86 10.52 23.89 10.3 23.83C9.89 23.73 9.46 23.4 9.14 23.65C8.73 24.1 9.37 24.29 9.58 24.69C9.78 25.06 9.66 25.34 9.7 25.89C9.57 26.06 9.28 26.39 8.95 26.45C8.5 26.53 7.88 26.19 7.25 26.04C6.84 25.93 6.22 25.93 6.14 25.52C6.09 25.25 6.35 25.1 6.4 24.88C6.47 24.58 6.31 24.34 6.51 24.1C6.22 23.66 6.35 22.98 6.32 22.19C6.29 21.33 6.31 20.74 6.51 20.12C6.59 19.9 6.6 19.64 6.67 19.52C6.78 19.26 7.55 18.64 7.86 18.48C8.57 18.08 9.75 17.77 11.01 17.95C11.27 17.98 11.51 18.2 11.76 18.25C12.23 18.33 12.87 18.2 13.37 18.25C13.52 18.16 13.64 18.06 13.74 17.91C13.78 17.1 13.33 16.78 13.1 16.23C13.21 15.41 12.96 14.48 13.26 13.69C13.33 13.47 13.7 12.84 13.89 12.63C14.08 12.41 14.48 12.11 14.72 12.06C15.15 11.99 15.87 12.23 16.29 12.37C16.52 12.2 17.05 12.2 17.38 12.33ZM15.16 14.02C15.53 14.11 15.67 13.66 15.84 13.42C15.74 13.24 15.8 12.9 15.53 12.89C15.57 13.43 15.31 13.67 15.16 14.02ZM13.78 13.86C13.83 13.92 13.94 13.91 14.05 13.91C14.15 13.69 14.18 13.39 14.3 13.2C13.97 13.1 13.76 13.6 13.78 13.86ZM16.14 13.99C15.8 14.25 15.15 14.52 15.35 15.07C15.79 14.95 15.97 14.52 16.29 14.25C16.55 14.02 17.04 13.88 16.99 13.37C16.56 13.21 16.41 13.76 16.14 13.99ZM16.14 15.74C16.28 15.83 16.45 15.75 16.62 15.74C16.93 15.71 17.15 15.89 17.33 15.89C17.52 15.71 17.36 15.39 17.15 15.36C16.9 15.77 16.01 15.04 16.14 15.74ZM18.53 15.36C18.34 15.34 18.26 15.56 18.27 15.7C18.3 15.95 18.76 16.24 19.02 16.23C18.94 16.07 18.72 15.39 18.53 15.36ZM15.27 15.93C14.97 16.05 14.79 16.32 14.72 16.66C14.97 16.77 15.01 16.41 15.23 16.38C15.49 16.52 15.48 16.91 15.76 17.01C15.83 17.12 16.16 16.97 16.17 17.12C16.17 17.32 15.85 17.32 15.65 17.43C15.42 17.54 15.01 17.87 14.67 18.07C14.08 18.41 13.3 18.86 14.19 19.26C14.28 19.18 14.18 18.99 14.23 18.9C14.3 18.72 15.03 18.2 15.12 18.19C15.27 18.16 15.44 18.27 15.58 18.25C15.97 18.2 16.06 17.82 16.4 17.68C16.61 17.73 16.83 17.77 17.12 17.76C17.46 17.88 17.28 18.53 17.67 18.6C17.85 18.35 17.72 18 17.94 17.76C17.9 17.52 17.68 17.46 17.71 17.17C17.77 17.02 17.94 16.99 18.08 16.93C18.44 17.19 18.37 17.87 18.72 18.13C19.02 17.94 19.1 17.26 18.91 16.93C18.75 16.66 18.23 16.56 18.12 16.35C17.24 16.36 16.58 16.57 15.91 16.78C15.65 16.56 15.53 16.17 15.27 15.93ZM19.58 18.33C19.86 18.17 19.7 17.59 19.4 17.57C19.27 17.79 19.27 18.33 19.58 18.33ZM16.06 18.66C16.14 18.86 16.45 18.82 16.51 19.03C16.4 19.45 16.74 19.66 16.81 20.01C16.59 20.33 16.24 20.04 16.14 19.83C15.97 19.85 15.87 19.94 15.87 20.12C16.73 20.18 16.26 21.18 15.72 21.35C15.56 21.42 15.34 21.35 15.16 21.4C14.95 21.45 14.76 21.69 14.53 21.77C14.17 21.9 13.85 21.79 13.63 21.97C13.52 22.4 13.58 22.95 13.89 22.94C14.22 22.92 14.2 22.29 14.53 22.19C14.99 22.26 14.94 21.9 15.2 21.81C15.34 21.76 15.5 21.85 15.68 21.81C16.2 21.67 16.34 20.99 16.66 20.6C17.51 20.71 17.72 19.97 17.74 19.37C17.27 19.46 16.7 19.53 16.62 19.12C16.58 18.82 16.85 18.69 16.93 18.4C16.7 18.02 16.11 18.32 16.06 18.66ZM9.1 18.78C8.93 18.78 8.97 18.57 8.77 18.62C8.8 18.91 8.53 18.91 8.46 19.07C8.5 19.27 8.77 19.27 8.84 19.45C9.43 19.44 9.59 19.01 10.1 18.92C10 18.23 9.48 18.55 9.1 18.78ZM10.93 18.51C10.8 18.73 10.95 19.09 11.16 19.18C11.51 19.03 11.39 18.45 10.93 18.51ZM12.88 20.04C13.04 19.85 12.96 19.37 12.69 19.37C12.57 19.53 12.52 20.12 12.88 20.04ZM6.85 20.43C7.09 20.56 7.64 20.6 7.82 20.39C7.69 20.13 7.69 19.91 7.71 19.68C7.34 19.83 6.97 20.02 6.85 20.43ZM13.06 20.6C13.37 20.66 13.98 20.73 14.05 20.43C13.89 20.04 13.01 20.06 13.06 20.6ZM8.84 21.32C8.67 21.33 8.74 21.12 8.57 21.13C8.35 21.14 8.35 21.37 8.16 21.4C8.08 21.37 8.03 21.31 7.89 21.32C7.81 21.4 7.68 21.44 7.71 21.61C7.91 21.53 7.96 21.56 8.12 21.65C8.18 21.58 8.16 21.44 8.31 21.44C8.28 21.99 7.94 22.57 7.3 22.63C7.24 22.92 7.04 23.07 6.85 23.23C6.7 23.92 6.89 24.55 7.56 24.55C7.61 24.43 7.59 24.23 7.6 24.05C7.41 23.87 7.22 23.68 7.3 23.23C7.41 23.14 7.54 23.07 7.75 23.08C8.03 22.81 8.28 22.49 8.46 22.1C8.34 21.69 8.77 21.4 8.95 21.74C8.95 21.85 8.83 22.04 9.02 22.03C9.17 21.99 8.95 21.85 8.95 21.74C9.13 21.49 9.61 21.51 9.73 21.21C9.45 20.76 9.14 21.19 8.84 21.32ZM7.03 22.01C7.24 21.83 7.31 21.42 7.18 21.13C6.81 21.13 6.74 21.85 7.03 22.01ZM11.83 22.1C11.86 22.24 12.14 22.17 12.24 22.15C12.24 22.1 12.26 22.06 12.28 22.03C12.23 21.95 12.12 21.89 12.01 21.85C12.05 22.03 11.82 21.95 11.83 22.1ZM15.01 22.56C14.87 22.63 14.72 22.67 14.64 22.82C14.59 23.07 14.74 23.52 14.53 23.61C14.17 23.35 13.89 23.54 13.66 23.8C13.48 23.77 13.42 23.59 13.14 23.65C13.12 23.77 13.01 24.23 13.22 24.25C13.42 24.2 13.1 23.86 13.37 23.86C13.44 24.04 13.56 24.15 13.66 24.29C13.64 24.56 13.55 25.13 13.7 25.34C14.15 25.2 13.72 24.2 14.27 24.16C14.45 24.27 14.4 24.61 14.42 24.88C14.58 24.95 14.77 25.19 15.05 25.22C15.35 25.25 15.9 25.15 16.02 24.92C15.83 24.77 15.51 24.76 15.35 24.58C15.29 24.54 15.31 24.38 15.31 24.29C14.94 24.04 14.77 23.41 14.94 22.86C14.99 22.67 15.37 22.42 15.05 22.22C14.99 22.28 15.02 22.44 15.01 22.56ZM8.05 24.73L8.05 24.84C8.38 24.8 8.45 25.2 8.73 25.11C8.64 24.85 8.32 24.66 8.05 24.73Z" fill="#FFFFFF" fill-opacity="1.000000" fill-rule="evenodd"/>
	</g>
	<g style="mix-blend-mode:normal">
		<path id="路径 4" d="M61.65 23.65C61.29 23.41 60.81 23.75 60.44 23.83C59.98 23.94 59.58 23.93 59.39 24.32C59.31 24.5 59.35 24.7 59.28 24.88C58.98 25.61 58.27 25.79 57.71 26.26C57.34 26.33 56.89 26.18 56.44 26.26C56.13 26.31 55.99 26.51 55.5 26.41C54.81 26.29 53.86 25.83 53.7 25.44C53.4 24.69 54.22 24.56 54.72 24.36C54.85 23.61 54.31 23.72 53.66 23.65C53.36 23.61 53 23.49 52.84 23.53C52.67 23.58 52.21 24.15 52.06 24.51C51.97 24.69 51.99 24.94 51.9 25.11C51.68 25.55 50.82 26.03 50.34 26C49.72 25.98 49.61 25.43 48.91 25.34C48.75 25.02 48.69 24.58 48.91 24.39C49.08 24.25 49.56 24.32 49.77 24.16C50.03 23.98 50.61 22.49 50.41 21.77C50.28 21.31 49.68 20.91 49.58 20.54C49.56 20.4 49.54 20.09 49.54 19.89C49.54 18.99 49.57 17.76 50.11 17.09C50.34 16.81 50.74 16.66 51.02 16.38C51.51 15.84 51.58 14.96 52.32 14.77C52.3 14.25 52.15 13.88 52.06 13.45C52.34 13.11 52.63 12.77 53.33 12.85C53.45 12.68 53.18 12.49 53.36 12.33C53.66 12.22 54.21 12.19 54.4 12.37C54.8 12.2 55.25 12.13 55.69 12.06C56.46 11.95 56.9 12.72 57.19 13.24C57.39 13.6 57.57 13.82 57.64 14.39C57.66 14.66 57.64 15 57.64 15.34C57.64 15.63 57.67 15.99 57.64 16.19C57.51 16.93 56.43 17.76 57.38 18.25C57.87 18.19 58.45 18.35 58.98 18.25C59.26 18.2 59.52 17.98 59.69 17.95C60.26 17.85 60.94 17.89 61.38 17.95C62.48 18.1 63.34 18.81 64.04 19.45C64.05 19.89 64.38 20.26 64.45 20.75C64.56 21.53 64.54 22.76 64.42 23.53C64.36 23.92 64.22 24.29 64.34 24.84C64.4 25.09 64.62 25.23 64.6 25.44C64.56 25.93 63.94 25.93 63.41 26.08C62.47 26.34 61.47 26.8 61.05 25.86C61.07 25.3 60.99 25.02 61.2 24.65C61.4 24.29 61.96 24.16 61.65 23.65ZM55.61 14.02C55.63 13.78 55.35 13.73 55.28 13.5C55.21 13.29 55.37 13.02 55.16 12.85C54.7 13.21 55.09 14.11 55.61 14.02ZM56.7 13.91C56.84 13.93 56.93 13.89 56.99 13.83C56.94 13.5 56.81 13.25 56.51 13.16C56.45 13.37 56.69 13.63 56.7 13.91ZM53.74 13.37C53.77 14 54.3 14.04 54.64 14.39C54.91 14.68 54.97 15.05 55.31 15.1C55.69 14.64 54.96 14.11 54.56 13.95C54.39 13.69 54.18 13.25 53.74 13.37ZM52.5 15.63C52.5 15.54 52.36 15.34 52.21 15.37C52.04 15.39 51.75 16.14 51.75 16.23C52.03 16.25 52.51 15.87 52.5 15.63ZM54.07 15.52C53.9 15.54 53.7 15.34 53.56 15.37C53.39 15.41 53.2 15.83 53.47 15.89C53.64 15.78 54.25 15.64 54.49 15.89C54.72 15.74 54.61 15.48 54.4 15.37C54.24 15.36 54.26 15.49 54.07 15.52ZM55.54 15.93C55.17 16.09 55.16 16.61 54.79 16.78C54.17 16.53 53.47 16.37 52.61 16.35C52.5 16.6 51.89 16.71 51.79 17.06C51.68 17.41 51.79 17.89 51.97 18.13C52.42 17.94 52.46 16.37 53.07 17.23C53.02 17.46 52.85 17.57 52.8 17.8C53.05 17.97 52.91 18.33 53.03 18.6C53.49 18.6 53.29 17.95 53.59 17.8C53.84 17.75 54.14 17.75 54.38 17.68C54.74 17.94 55.02 18.41 55.64 18.19C55.98 18.53 56.6 18.66 56.55 19.26C56.84 19.26 57.02 18.95 56.99 18.78C56.96 18.42 56.21 18.13 55.84 17.91C55.62 17.78 55.45 17.6 55.24 17.5C54.99 17.38 54.64 17.39 54.6 17.12C54.63 17 54.85 17.07 54.97 17.06C55.25 16.93 55.25 16.5 55.54 16.38C55.74 16.41 55.83 16.75 56.02 16.66C56.03 16.41 55.8 16.07 55.54 15.93ZM51.02 18.13C51.28 18.6 51.57 17.92 51.38 17.57C51.08 17.59 51.06 17.88 51.02 18.13ZM53.82 18.4C53.93 18.66 54.13 18.82 54.15 19.14C53.99 19.56 53.38 19.39 52.99 19.4C53.08 19.93 53.18 20.74 54.07 20.58C54.36 21.03 54.59 21.53 55.06 21.81C55.71 21.56 55.66 22.22 56.21 22.19C56.55 22.29 56.53 22.92 56.84 22.94C57.21 22.97 57.23 22.29 57.12 21.92C56.8 21.79 56.51 21.9 56.17 21.77C56.01 21.71 55.89 21.49 55.72 21.44C55.47 21.35 55.2 21.45 54.97 21.35C54.66 21.23 54.4 20.74 54.4 20.35C54.48 20.17 54.82 20.26 54.86 20.04C54.85 19.9 54.75 19.85 54.64 19.83C54.5 20.04 54.13 20.35 53.93 19.97C54.07 19.66 54.32 19.47 54.27 18.95C54.36 18.82 54.64 18.86 54.68 18.66C54.66 18.28 54.03 18.05 53.82 18.4ZM60.63 18.9C61.12 19.01 61.33 19.42 61.91 19.45C61.96 19.26 62.27 19.28 62.31 19.07C62.2 18.92 61.96 18.91 61.98 18.62C61.76 18.57 61.81 18.8 61.6 18.78C61.24 18.5 60.78 18.29 60.63 18.9ZM59.62 19.18C59.78 19.06 59.95 18.79 59.84 18.51C59.36 18.44 59.21 19.07 59.62 19.18ZM57.98 19.37C57.81 19.47 57.69 19.87 57.87 20.04C58.23 20.13 58.27 19.42 57.98 19.37ZM62.91 20.43C63.15 20.59 63.59 20.53 63.89 20.46C63.79 20.01 63.41 19.83 63.03 19.68C63.06 19.92 63.03 20.16 62.91 20.43ZM56.74 20.49C56.86 20.69 57.41 20.67 57.67 20.6C57.77 20.04 56.77 20.02 56.74 20.49ZM61.01 21.24C61.19 21.47 61.53 21.56 61.72 21.77C61.7 21.85 61.65 21.97 61.72 22.03C61.95 22.01 61.74 21.93 61.72 21.77C62.28 21.36 62.28 22.26 62.54 22.63C62.7 22.87 62.91 22.9 62.99 23.08C63.13 23.11 63.29 23.12 63.41 23.15C63.73 23.72 62.88 23.98 63.22 24.55C64.05 24.66 64.17 23.17 63.56 22.94C63.56 22.81 63.51 22.76 63.48 22.67C62.86 22.59 62.41 21.95 62.47 21.44C62.6 21.72 62.82 21.5 63.06 21.61C63.05 21.45 62.94 21.38 62.81 21.32C62.7 21.33 62.58 21.44 62.47 21.44C62.37 21.35 62.37 21.18 62.2 21.13C62.04 21.13 62.08 21.35 61.87 21.32C61.63 21.12 61.23 20.79 61.01 21.24ZM63.77 21.97C63.99 21.76 63.91 21.15 63.59 21.13C63.42 21.38 63.47 21.88 63.77 21.97ZM58.5 22.1C58.59 22.19 58.74 22.19 58.91 22.19C58.91 22.13 58.92 22.1 58.95 22.06C58.81 21.97 58.5 21.74 58.5 22.1ZM55.84 22.9C55.77 23.27 55.84 23.55 55.8 23.94C55.6 24.12 55.39 24.26 55.43 24.58C55.24 24.77 54.84 24.74 54.72 25C55.2 25.26 56.02 25.28 56.33 24.88C56.38 24.62 56.27 24.2 56.55 24.16C57.02 24.26 56.61 25.23 57.08 25.34C57.21 25.11 57.17 24.51 57.08 24.29C57.26 24.18 57.26 23.91 57.49 23.86C57.52 23.98 57.41 24.25 57.56 24.25C57.71 24.15 57.69 23.77 57.6 23.65C57.29 23.58 57.29 23.8 57.04 23.8C56.9 23.43 56.51 23.41 56.17 23.61C56.05 23.38 56.13 23.14 56.1 22.79C55.82 22.69 55.74 22.41 55.64 22.22C55.5 22.53 55.74 22.73 55.84 22.9ZM62.05 25.14C62.31 25.06 62.51 24.92 62.69 24.77C62.48 24.62 62.05 24.83 62.05 25.14Z" fill="#FFFFFF" fill-opacity="1.000000" fill-rule="evenodd"/>
	</g>
	<g style="mix-blend-mode:normal">
		<path id="路径 5" d="M42.39 15.22C42.62 15.18 42.69 14.92 42.99 14.96C43.47 15 43.58 16.27 43.63 16.91C43.72 18.02 43.62 21.01 42.51 20.01C42.48 19.77 42.52 19.6 42.58 19.45C42.05 19.14 40.99 18.9 40.07 18.81C39.61 18.78 38.95 18.84 39.13 18.21C39.28 17.71 40.45 18.03 40.93 18.09C41.67 18.22 42.11 18.34 42.69 18.51C42.81 18.41 42.75 18.13 42.81 17.95C42.37 17.62 40.89 17.23 39.92 17.17C39.45 17.14 38.98 17.19 38.98 16.72C38.98 16.5 39.15 16.44 39.28 16.3C40.63 16.32 41.72 16.59 42.73 16.93C43.01 15.99 41.77 15.87 41.08 15.7C40.38 15.54 39.67 15.5 39.13 15.44C38.83 15.29 38.85 14.67 39.32 14.66C40.18 14.63 41.83 14.96 42.39 15.22Z" fill="#FFFFFF" fill-opacity="1.000000" fill-rule="evenodd"/>
	</g>
	<g style="mix-blend-mode:normal">
		<path id="路径 6" d="M36.7 25.86C35.87 24.77 38.54 24.88 38.87 24.32C38.5 24.13 37.98 24.04 37.49 23.98C36.98 23.91 36.46 23.86 35.99 23.86C36.02 24.61 36.35 25.88 35.55 26.11C34.98 26.26 33.23 26.1 33.14 25.7C32.97 24.77 34.48 25.38 35.16 25.29C35.34 24.88 35.18 24.21 35.05 23.86C33.71 23.74 32.42 24 31.31 24.25C31.64 24.77 32.62 24.63 32.69 25.14C32.88 26.26 30.95 25.13 30.67 24.95C29.61 24.34 28.84 23.64 28.08 22.62C27.79 22.23 27.18 21.46 27.22 21.06C27.26 20.66 28.15 20.43 28.72 20.28C32.09 19.37 35.98 19.02 39.73 19.78C40.24 19.89 40.82 20.08 41.41 20.28C41.91 20.43 42.82 20.63 42.89 20.99C42.96 21.45 42.1 22.55 41.91 22.82C41.05 23.97 40.17 24.68 38.84 25.29C38.22 25.57 37.51 25.88 36.7 25.86ZM28.26 21.32C28.77 22.28 29.49 23.02 30.29 23.68C30.84 23.49 31.43 23.33 32.06 23.23C31.81 22.99 31.5 22.85 31.16 22.59C30.91 22.4 30.42 22.13 30.44 21.74C30.47 21.33 31.35 21.12 31.94 20.99C33.91 20.55 36.22 20.6 38.09 21.01C38.67 21.15 39.66 21.3 39.66 21.77C39.66 22.03 39.22 22.42 38.98 22.59C38.66 22.85 38.3 22.88 38.09 23.23C38.79 23.28 39.31 23.5 39.88 23.68C40.73 23.09 41.37 22.29 41.83 21.32C38.26 19.83 31.88 19.93 28.26 21.32ZM31.8 21.97C33.25 23.24 36.81 23.24 38.27 21.97C36.53 21.4 33.53 21.4 31.8 21.97Z" fill="#FFFFFF" fill-opacity="1.000000" fill-rule="evenodd"/>
	</g>
	<g style="mix-blend-mode:normal">
		<path id="路径 7" d="M10.14 47.86C10.14 47.78 10.11 47.67 10.07 47.51C10.03 47.37 10 47.26 9.96 47.22C9.89 47.12 9.77 47.05 9.59 47.02C9.4 46.99 9.18 46.97 8.91 46.97L4.92 46.97L4.92 46.63L9.36 43.35L6.56 43.35C6.25 43.35 6.02 43.37 5.85 43.41C5.67 43.44 5.56 43.5 5.49 43.6C5.43 43.65 5.38 43.78 5.33 43.96C5.28 44.14 5.25 44.26 5.25 44.31L4.99 44.31L4.99 42.1L5.25 42.1C5.26 42.16 5.28 42.28 5.33 42.43C5.38 42.6 5.42 42.7 5.45 42.74C5.51 42.83 5.63 42.9 5.76 42.92C5.92 42.96 6.17 42.98 6.53 42.98L9.2 42.98C9.31 42.98 9.43 42.96 9.55 42.91C9.67 42.87 9.75 42.83 9.82 42.75C9.91 42.65 9.98 42.52 10.04 42.38C10.1 42.23 10.13 42.1 10.14 41.99L10.41 41.99L10.41 43.55L6.26 46.59L8.85 46.59C9.16 46.59 9.41 46.58 9.58 46.53C9.75 46.51 9.87 46.44 9.92 46.35C9.97 46.28 10.02 46.18 10.06 46.01C10.1 45.85 10.13 45.72 10.14 45.64L10.41 45.64L10.41 47.86L10.14 47.86Z" fill="#FFFFFF" fill-opacity="1.000000" fill-rule="nonzero"/>
	</g>
	<g style="mix-blend-mode:normal">
		<path id="路径 8" d="M5.43 54.05L5.19 51.82L5.47 51.79C5.5 51.98 5.54 52.15 5.6 52.27C5.64 52.4 5.69 52.46 5.77 52.46C5.79 52.45 5.9 52.42 5.92 52.4L7.09 51.84L6.9 49.94C6.71 49.88 6.55 49.84 6.42 49.81C6.28 49.78 6.15 49.75 6.04 49.73C5.92 49.7 5.83 49.7 5.77 49.69L5.6 49.69C5.49 49.7 5.43 49.78 5.38 49.95C5.35 50.12 5.33 50.29 5.34 50.5L5.07 50.52L4.86 48.48L5.13 48.47C5.15 48.53 5.17 48.61 5.2 48.72C5.24 48.81 5.28 48.88 5.33 48.94C5.4 49.04 5.49 49.11 5.56 49.16C5.64 49.21 5.75 49.25 5.89 49.29C6.6 49.5 7.39 49.7 8.27 49.96C9.14 50.2 9.92 50.41 10.61 50.61L10.64 50.91L6.16 53.19C6.07 53.22 5.99 53.28 5.93 53.33C5.88 53.39 5.82 53.46 5.78 53.56C5.75 53.62 5.72 53.7 5.72 53.79C5.69 53.89 5.69 53.96 5.69 54.03L5.43 54.05ZM7.4 51.66L9.43 50.63L7.25 50.04L7.4 51.66Z" fill="#FFFFFF" fill-opacity="1.000000" fill-rule="nonzero"/>
	</g>
	<g style="mix-blend-mode:normal">
		<path id="路径 9" d="M11.88 59.73C11.87 59.67 11.83 59.56 11.76 59.42C11.69 59.29 11.62 59.2 11.57 59.14C11.49 59.07 11.35 59.04 11.16 59.04C10.99 59.04 10.76 59.08 10.48 59.14L6.6 59.99L6.53 59.67L10.16 55.51L7.43 56.1C7.12 56.17 6.89 56.24 6.74 56.32C6.58 56.4 6.47 56.48 6.42 56.58C6.38 56.65 6.35 56.78 6.35 56.96C6.34 57.16 6.34 57.28 6.35 57.33L6.09 57.4L5.6 55.22L5.86 55.16C5.89 55.23 5.95 55.33 6.02 55.48C6.1 55.64 6.15 55.72 6.2 55.76C6.29 55.84 6.4 55.87 6.56 55.87C6.71 55.87 6.96 55.84 7.31 55.76L9.91 55.18C10.03 55.15 10.14 55.11 10.25 55.05C10.35 54.98 10.43 54.9 10.48 54.83C10.55 54.72 10.59 54.57 10.61 54.41C10.63 54.24 10.64 54.11 10.62 54.02L10.89 53.96L11.23 55.47L7.84 59.36L10.35 58.79C10.67 58.72 10.89 58.65 11.06 58.57C11.22 58.5 11.31 58.42 11.35 58.33C11.38 58.25 11.41 58.12 11.41 57.96C11.42 57.79 11.42 57.66 11.41 57.59L11.67 57.52L12.15 59.68L11.88 59.73Z" fill="#FFFFFF" fill-opacity="1.000000" fill-rule="nonzero"/>
	</g>
	<g style="mix-blend-mode:normal">
		<path id="路径 10" d="M13.58 62.92C13.53 62.86 13.48 62.78 13.42 62.7C13.35 62.63 13.28 62.57 13.23 62.51C13.15 62.45 13.08 62.41 13.01 62.43C12.94 62.44 12.85 62.46 12.78 62.51L9.99 64.11C9.84 64.19 9.68 64.25 9.48 64.28C9.28 64.32 9.09 64.32 8.89 64.28C8.67 64.23 8.46 64.15 8.27 64.02C8.09 63.89 7.93 63.69 7.79 63.46C7.59 63.11 7.51 62.77 7.59 62.41C7.67 62.07 7.86 61.81 8.22 61.61C8.36 61.53 8.52 61.49 8.68 61.49C8.84 61.5 8.96 61.59 9.06 61.74C9.12 61.88 9.15 61.99 9.12 62.11C9.1 62.24 9.02 62.34 8.9 62.41C8.82 62.45 8.74 62.48 8.66 62.5C8.57 62.51 8.5 62.51 8.42 62.51C8.34 62.5 8.27 62.5 8.17 62.5C8.08 62.5 8 62.5 7.93 62.51C7.89 62.59 7.86 62.7 7.86 62.84C7.86 62.98 7.91 63.11 8 63.28C8.1 63.45 8.23 63.55 8.35 63.61C8.48 63.67 8.63 63.69 8.78 63.67C8.92 63.66 9.09 63.61 9.27 63.53C9.45 63.45 9.64 63.36 9.84 63.25L12.34 61.81C12.41 61.76 12.47 61.71 12.51 61.67C12.55 61.61 12.56 61.53 12.56 61.43C12.55 61.34 12.53 61.23 12.49 61.11C12.45 61 12.41 60.92 12.37 60.84L12.62 60.71L13.81 62.78L13.58 62.92Z" fill="#FFFFFF" fill-opacity="1.000000" fill-rule="nonzero"/>
	</g>
	<g style="mix-blend-mode:normal">
		<path id="路径 11" d="M11.66 69.13L10.18 67.19L10.39 67.03C10.45 67.08 10.52 67.16 10.59 67.26C10.68 67.35 10.75 67.41 10.8 67.45C10.88 67.49 10.95 67.51 11.02 67.51C11.09 67.49 11.16 67.46 11.24 67.41L14.37 65.02C14.44 64.97 14.49 64.91 14.53 64.85C14.55 64.8 14.55 64.71 14.53 64.6C14.5 64.52 14.47 64.42 14.42 64.32C14.37 64.21 14.32 64.14 14.28 64.07L14.5 63.9L15.98 65.84L15.76 66C15.71 65.94 15.65 65.88 15.57 65.8C15.49 65.72 15.42 65.66 15.34 65.61C15.27 65.55 15.19 65.53 15.11 65.55C15.03 65.56 14.96 65.6 14.9 65.64L11.78 68.03C11.71 68.08 11.66 68.14 11.63 68.21C11.6 68.28 11.59 68.35 11.61 68.46C11.64 68.5 11.68 68.6 11.73 68.69C11.78 68.81 11.83 68.9 11.88 68.97L11.66 69.13Z" fill="#FFFFFF" fill-opacity="1.000000" fill-rule="nonzero"/>
	</g>
	<g style="mix-blend-mode:normal">
		<path id="路径 12" d="M21 71.06C20.94 71.01 20.85 70.95 20.72 70.87C20.58 70.8 20.48 70.76 20.4 70.74C20.29 70.73 20.16 70.77 20.01 70.88C19.87 70.99 19.69 71.15 19.51 71.35L16.76 74.23L16.52 74L17.2 68.51L15.27 70.54C15.06 70.77 14.9 70.95 14.81 71.11C14.73 71.25 14.69 71.39 14.7 71.49C14.7 71.58 14.76 71.7 14.86 71.86C14.95 72.01 15.02 72.12 15.06 72.16L14.88 72.36L13.26 70.81L13.46 70.63C13.51 70.67 13.6 70.73 13.76 70.81C13.91 70.89 14.01 70.94 14.06 70.94C14.18 70.95 14.3 70.91 14.42 70.81C14.54 70.73 14.73 70.57 14.97 70.31L16.83 68.37C16.9 68.28 16.97 68.2 17.02 68.08C17.07 67.96 17.09 67.87 17.08 67.78C17.08 67.64 17.04 67.51 16.97 67.36C16.89 67.2 16.83 67.1 16.76 67.01L16.94 66.82L18.06 67.89L17.42 73L19.2 71.13C19.42 70.9 19.58 70.7 19.66 70.56C19.74 70.41 19.77 70.29 19.77 70.19C19.74 70.11 19.69 69.99 19.61 69.85C19.52 69.71 19.45 69.6 19.4 69.54L19.58 69.34L21.18 70.86L21 71.06Z" fill="#FFFFFF" fill-opacity="1.000000" fill-rule="nonzero"/>
	</g>
	<g style="mix-blend-mode:normal">
		<path id="路径 13" d="M24.07 76.64C24.01 76.62 23.93 76.58 23.85 76.53C23.75 76.49 23.67 76.46 23.6 76.45C23.51 76.45 23.44 76.46 23.36 76.5C23.31 76.53 23.25 76.59 23.19 76.68L22.96 77.02C22.79 77.28 22.66 77.45 22.61 77.54C22.55 77.64 22.51 77.7 22.48 77.76C22.11 77.7 21.76 77.62 21.44 77.49C21.12 77.36 20.82 77.22 20.55 77.05C20.27 76.84 20.02 76.6 19.84 76.32C19.63 76.02 19.51 75.72 19.45 75.39C19.38 75.04 19.38 74.69 19.47 74.33C19.54 73.97 19.69 73.59 19.94 73.25C20.16 72.9 20.44 72.62 20.75 72.4C21.07 72.19 21.4 72.04 21.75 71.97C22.09 71.89 22.44 71.89 22.8 71.96C23.15 72.03 23.5 72.18 23.8 72.38C24.05 72.56 24.26 72.74 24.41 72.93C24.55 73.12 24.67 73.29 24.76 73.48L25.03 73.35L25.28 73.53L24.25 75.12L24 74.94C24.07 74.73 24.12 74.54 24.16 74.32C24.22 74.11 24.23 73.91 24.22 73.69C24.21 73.49 24.15 73.29 24.05 73.12C23.96 72.95 23.8 72.78 23.61 72.64C23.37 72.49 23.15 72.4 22.91 72.37C22.66 72.34 22.41 72.37 22.16 72.47C21.91 72.55 21.66 72.7 21.43 72.93C21.18 73.15 20.94 73.4 20.72 73.73C20.53 74.01 20.38 74.3 20.28 74.61C20.18 74.91 20.13 75.2 20.13 75.47C20.14 75.74 20.2 76 20.33 76.25C20.45 76.48 20.64 76.68 20.89 76.86C21.08 76.98 21.26 77.08 21.46 77.11C21.65 77.15 21.8 77.18 21.9 77.15C22 77.05 22.08 76.96 22.16 76.84C22.23 76.73 22.3 76.63 22.35 76.56L22.51 76.31C22.58 76.22 22.62 76.14 22.64 76.05C22.66 75.97 22.66 75.88 22.6 75.8C22.54 75.72 22.47 75.62 22.37 75.53C22.25 75.43 22.16 75.36 22.09 75.32L22.25 75.07L24.23 76.41L24.07 76.64Z" fill="#FFFFFF" fill-opacity="1.000000" fill-rule="nonzero"/>
	</g>
	<g style="mix-blend-mode:normal">
		<path id="路径 14" d="M37.69 77.53C37.62 77.53 37.52 77.54 37.38 77.57C37.24 77.6 37.13 77.64 37.04 77.69C36.95 77.75 36.89 77.88 36.87 78.06C36.83 78.24 36.81 78.46 36.81 78.73L36.81 81.09C36.81 81.38 36.75 81.65 36.62 81.87C36.49 82.1 36.33 82.28 36.13 82.42C35.94 82.56 35.72 82.67 35.49 82.72C35.27 82.79 35.06 82.81 34.85 82.81C34.53 82.81 34.23 82.77 33.98 82.68C33.73 82.6 33.52 82.48 33.34 82.33C33.17 82.19 33.04 82.03 32.96 81.83C32.86 81.65 32.82 81.45 32.82 81.25L32.82 78.05C32.82 77.95 32.81 77.88 32.78 77.82C32.75 77.75 32.69 77.7 32.6 77.66C32.54 77.62 32.46 77.58 32.36 77.56C32.25 77.54 32.17 77.53 32.11 77.53L32.11 77.25L34.36 77.25L34.36 77.53C34.3 77.53 34.21 77.53 34.1 77.55C33.99 77.57 33.91 77.6 33.86 77.62C33.77 77.64 33.71 77.7 33.69 77.76C33.66 77.85 33.64 77.93 33.64 78.01L33.64 81C33.64 81.14 33.66 81.3 33.69 81.45C33.73 81.61 33.79 81.76 33.88 81.9C33.98 82.04 34.11 82.15 34.29 82.24C34.46 82.33 34.68 82.38 34.99 82.38C35.27 82.38 35.5 82.33 35.7 82.24C35.88 82.15 36.04 82.04 36.14 81.9C36.24 81.76 36.32 81.61 36.37 81.46C36.41 81.31 36.44 81.17 36.44 81.01L36.44 78.79C36.44 78.5 36.41 78.27 36.37 78.09C36.32 77.91 36.27 77.79 36.2 77.73C36.1 77.67 35.98 77.62 35.83 77.58C35.67 77.55 35.55 77.53 35.47 77.53L35.47 77.25L37.69 77.25L37.69 77.53Z" fill="#FFFFFF" fill-opacity="1.000000" fill-rule="nonzero"/>
	</g>
	<g style="mix-blend-mode:normal">
		<path id="路径 15" d="M43.99 74.77C43.93 74.81 43.83 74.87 43.72 74.97C43.59 75.07 43.51 75.15 43.47 75.21C43.41 75.3 43.41 75.43 43.45 75.61C43.49 75.8 43.57 76.01 43.68 76.26L45.27 79.9L44.95 80.05L40.17 77.29L41.29 79.85C41.41 80.14 41.52 80.35 41.63 80.49C41.74 80.64 41.84 80.71 41.94 80.74C42.02 80.78 42.16 80.78 42.34 80.74C42.52 80.72 42.65 80.69 42.7 80.67L42.81 80.92L40.77 81.82L40.65 81.56C40.72 81.53 40.81 81.46 40.95 81.35C41.08 81.25 41.15 81.17 41.18 81.12C41.24 81.03 41.24 80.9 41.22 80.74C41.19 80.6 41.11 80.37 40.97 80.03L39.9 77.59C39.84 77.48 39.78 77.37 39.7 77.29C39.62 77.21 39.54 77.14 39.44 77.11C39.33 77.08 39.18 77.05 39.02 77.06C38.85 77.07 38.72 77.09 38.62 77.14L38.52 76.88L39.94 76.26L44.38 78.83L43.36 76.46C43.23 76.18 43.11 75.96 43.01 75.82C42.9 75.67 42.81 75.59 42.71 75.58C42.62 75.55 42.51 75.55 42.34 75.58C42.18 75.61 42.05 75.64 41.97 75.67L41.86 75.41L43.88 74.54L43.99 74.77Z" fill="#FFFFFF" fill-opacity="1.000000" fill-rule="nonzero"/>
	</g>
	<g style="mix-blend-mode:normal">
		<path id="路径 16" d="M49.42 77.91L47.23 78.98L47.11 78.74C47.17 78.71 47.26 78.65 47.37 78.6C47.48 78.53 47.56 78.46 47.6 78.43C47.65 78.35 47.69 78.28 47.7 78.21C47.71 78.14 47.69 78.06 47.65 77.98L45.91 74.45C45.89 74.37 45.84 74.3 45.79 74.26C45.73 74.23 45.65 74.21 45.54 74.22C45.46 74.23 45.36 74.25 45.25 74.26C45.12 74.29 45.04 74.32 44.97 74.35L44.84 74.11L47.05 73.04L47.17 73.28C47.1 73.31 47.02 73.37 46.92 73.43C46.83 73.48 46.75 73.54 46.69 73.61C46.62 73.68 46.58 73.77 46.58 73.84C46.58 73.91 46.61 73.98 46.64 74.06L48.36 77.59C48.4 77.66 48.44 77.73 48.51 77.76C48.57 77.81 48.65 77.82 48.75 77.82C48.81 77.82 48.89 77.8 49.01 77.76C49.13 77.73 49.23 77.7 49.3 77.67L49.42 77.91Z" fill="#FFFFFF" fill-opacity="1.000000" fill-rule="nonzero"/>
	</g>
	<g style="mix-blend-mode:normal">
		<path id="路径 17" d="M52.09 69.39C52.04 69.44 51.97 69.51 51.92 69.58C51.86 69.66 51.83 69.75 51.81 69.81C51.77 69.91 51.75 69.99 51.77 70.1C51.79 70.19 51.81 70.31 51.84 70.42C51.96 70.86 52.15 71.51 52.42 72.38C52.7 73.27 52.98 74.18 53.27 75.14L53.02 75.34C52.12 74.8 51.25 74.29 50.42 73.77C49.57 73.27 49.01 72.94 48.71 72.76C48.64 72.72 48.56 72.69 48.48 72.67C48.4 72.66 48.32 72.66 48.22 72.67C48.14 72.68 48.05 72.7 47.98 72.74C47.9 72.77 47.83 72.81 47.77 72.84L47.6 72.63L49.35 71.24L49.53 71.45C49.37 71.58 49.26 71.7 49.18 71.79C49.1 71.9 49.08 71.97 49.13 72.03C49.16 72.06 49.25 72.15 49.28 72.16C49.5 72.3 49.88 72.51 50.4 72.82C50.92 73.15 51.65 73.58 52.61 74.14C52.46 73.66 52.29 73.08 52.09 72.42C51.88 71.76 51.74 71.31 51.65 71.07C51.58 70.83 51.51 70.68 51.47 70.61C51.42 70.53 51.38 70.47 51.36 70.42C51.32 70.37 51.26 70.35 51.2 70.35C51.13 70.35 51.06 70.37 50.97 70.4C50.89 70.44 50.81 70.48 50.72 70.53C50.65 70.57 50.58 70.61 50.51 70.66L50.34 70.44L51.92 69.19L52.09 69.39Z" fill="#FFFFFF" fill-opacity="1.000000" fill-rule="nonzero"/>
	</g>
	<g style="mix-blend-mode:normal">
		<path id="路径 18" d="M58.15 67.62L59.31 68.72L56.42 72.18L56.21 72.01C56.26 71.95 56.32 71.86 56.39 71.76C56.46 71.65 56.5 71.58 56.5 71.52C56.53 71.45 56.52 71.38 56.5 71.31C56.47 71.24 56.42 71.18 56.35 71.13L53.36 68.62C53.29 68.56 53.22 68.53 53.15 68.51C53.09 68.49 53.01 68.5 52.92 68.54C52.85 68.57 52.78 68.63 52.68 68.69C52.58 68.77 52.52 68.83 52.46 68.88L52.26 68.72L54.95 65.48L55.95 66.33L55.77 66.55C55.59 66.46 55.35 66.41 55.08 66.41C54.8 66.4 54.61 66.45 54.5 66.55C54.43 66.6 54.38 66.67 54.29 66.74C54.23 66.82 54.14 66.92 54.04 67.03L53.52 67.69L55.15 69.06L55.56 68.6C55.68 68.45 55.76 68.33 55.79 68.24C55.82 68.14 55.82 68.03 55.79 67.94C55.78 67.84 55.73 67.74 55.66 67.62C55.59 67.52 55.52 67.42 55.45 67.34L55.63 67.12L57.25 68.49L57.08 68.69C56.98 68.64 56.86 68.57 56.73 68.52C56.6 68.46 56.49 68.44 56.41 68.43C56.28 68.43 56.17 68.46 56.09 68.52C55.99 68.57 55.9 68.67 55.79 68.81L55.39 69.26L56.66 70.31C56.78 70.42 56.88 70.49 56.97 70.53C57.06 70.58 57.14 70.58 57.23 70.57C57.29 70.55 57.39 70.49 57.48 70.42C57.54 70.34 57.66 70.21 57.8 70.04C57.85 69.98 57.92 69.91 58 69.79C58.1 69.7 58.17 69.6 58.22 69.52C58.28 69.44 58.32 69.34 58.37 69.24C58.42 69.16 58.44 69.08 58.42 69.02C58.42 68.85 58.35 68.64 58.23 68.37C58.13 68.12 58.04 67.94 57.98 67.83L58.15 67.62Z" fill="#FFFFFF" fill-opacity="1.000000" fill-rule="nonzero"/>
	</g>
	<g style="mix-blend-mode:normal">
		<path id="路径 19" d="M62.65 62.57L61.96 63.83C61.35 63.89 60.82 63.93 60.38 64C59.94 64.04 59.46 64.11 58.98 64.19L58.71 64.68L60.22 65.5C60.3 65.54 60.37 65.57 60.44 65.57C60.52 65.57 60.59 65.55 60.67 65.49C60.71 65.46 60.76 65.39 60.82 65.3C60.9 65.21 60.95 65.12 60.99 65.05L61.23 65.18L60.13 67.2L59.89 67.07C59.92 67.01 59.95 66.93 60 66.82C60.05 66.71 60.06 66.65 60.07 66.6C60.08 66.51 60.06 66.45 60.02 66.38C59.98 66.32 59.92 66.27 59.84 66.21L56.38 64.34C56.31 64.31 56.23 64.28 56.15 64.27C56.08 64.25 56 64.28 55.93 64.34C55.88 64.39 55.82 64.46 55.76 64.54C55.69 64.62 55.63 64.68 55.6 64.75L55.36 64.63L56.56 62.41C56.67 62.21 56.78 62.02 56.92 61.89C57.06 61.73 57.21 61.61 57.39 61.5C57.55 61.41 57.73 61.37 57.92 61.36C58.1 61.36 58.3 61.41 58.5 61.52C58.69 61.63 58.84 61.75 58.95 61.88C59.06 62 59.14 62.15 59.19 62.32C59.23 62.47 59.24 62.64 59.24 62.82C59.23 62.99 59.2 63.18 59.16 63.38C59.6 63.32 59.98 63.26 60.27 63.23C60.56 63.18 60.92 63.13 61.35 63.07C61.54 63.04 61.7 63.01 61.79 62.98C61.91 62.92 61.99 62.88 62.08 62.82C62.15 62.77 62.2 62.71 62.27 62.63C62.33 62.55 62.37 62.48 62.41 62.43L62.65 62.57ZM58.14 62.4C57.85 62.24 57.57 62.2 57.31 62.27C57.06 62.35 56.85 62.55 56.69 62.84L56.36 63.42L58.42 64.52L58.66 64.08C58.82 63.77 58.87 63.46 58.78 63.15C58.69 62.83 58.48 62.59 58.14 62.4Z" fill="#FFFFFF" fill-opacity="1.000000" fill-rule="nonzero"/>
	</g>
	<g style="mix-blend-mode:normal">
		<path id="路径 20" d="M61.26 57.93C61.41 57.85 61.56 57.81 61.72 57.79C61.89 57.78 62.06 57.79 62.26 57.85C62.73 57.96 63.06 58.23 63.27 58.65C63.48 59.08 63.52 59.54 63.39 60.05C63.33 60.27 63.23 60.51 63.1 60.73C62.97 60.95 62.83 61.11 62.67 61.26L62.9 61.49L62.83 61.79L61.02 61.37L61.1 61.07C61.34 61.07 61.55 61.04 61.76 61C61.96 60.97 62.15 60.91 62.34 60.82C62.52 60.73 62.67 60.6 62.81 60.46C62.94 60.31 63.03 60.13 63.09 59.89C63.13 59.72 63.15 59.56 63.14 59.43C63.13 59.28 63.09 59.17 63.03 59.08C62.97 58.97 62.88 58.88 62.8 58.81C62.69 58.75 62.56 58.7 62.42 58.65C62.22 58.61 62 58.61 61.79 58.68C61.58 58.76 61.4 58.9 61.24 59.11C61.13 59.26 61.01 59.42 60.88 59.61C60.76 59.79 60.63 59.96 60.52 60.1C60.31 60.36 60.08 60.53 59.82 60.64C59.56 60.75 59.26 60.76 58.91 60.68C58.71 60.62 58.54 60.52 58.38 60.4C58.23 60.27 58.11 60.13 58.02 59.93C57.92 59.76 57.87 59.56 57.85 59.35C57.82 59.13 57.84 58.92 57.9 58.71C57.96 58.47 58.05 58.26 58.17 58.09C58.3 57.92 58.42 57.76 58.57 57.65L58.35 57.42L58.42 57.11L60.18 57.54L60.1 57.85C59.89 57.85 59.69 57.85 59.49 57.87C59.28 57.9 59.1 57.94 58.92 58.01C58.75 58.08 58.61 58.18 58.48 58.31C58.35 58.44 58.27 58.61 58.2 58.83C58.14 59.08 58.17 59.3 58.27 59.49C58.38 59.69 58.55 59.83 58.75 59.89C58.98 59.95 59.19 59.94 59.37 59.88C59.55 59.81 59.71 59.68 59.85 59.51C59.98 59.35 60.1 59.2 60.21 59.04C60.32 58.88 60.44 58.73 60.55 58.58C60.65 58.46 60.76 58.33 60.88 58.22C60.99 58.1 61.12 58 61.26 57.93Z" fill="#FFFFFF" fill-opacity="1.000000" fill-rule="nonzero"/>
	</g>
	<g style="mix-blend-mode:normal">
		<path id="路径 21" d="M64.48 54.33L64.15 56.75L63.88 56.71C63.88 56.63 63.89 56.54 63.9 56.41C63.91 56.28 63.9 56.19 63.89 56.12C63.87 56.05 63.83 55.98 63.78 55.93C63.73 55.88 63.65 55.85 63.55 55.84L59.65 55.32C59.56 55.31 59.49 55.32 59.43 55.32C59.37 55.35 59.3 55.4 59.25 55.51C59.21 55.58 59.17 55.66 59.13 55.78C59.09 55.88 59.05 55.98 59.03 56.06L58.77 56.02L59.1 53.6L59.37 53.64C59.36 53.71 59.36 53.8 59.36 53.91C59.36 54.03 59.37 54.12 59.38 54.21C59.4 54.3 59.44 54.37 59.51 54.42C59.57 54.46 59.65 54.49 59.73 54.49L63.62 55.03C63.7 55.05 63.77 55.03 63.84 55.01C63.92 54.98 63.98 54.92 64.02 54.83C64.05 54.79 64.09 54.71 64.13 54.6C64.17 54.48 64.2 54.37 64.21 54.29L64.48 54.33Z" fill="#FFFFFF" fill-opacity="1.000000" fill-rule="nonzero"/>
	</g>
	<g style="mix-blend-mode:normal">
		<path id="路径 22" d="M61.03 47.9L61.02 48.15C60.92 48.18 60.81 48.22 60.69 48.27C60.56 48.33 60.44 48.39 60.33 48.45C60.22 48.53 60.1 48.61 60.02 48.7C59.92 48.79 59.87 48.87 59.85 48.96C59.84 49.04 59.83 49.13 59.81 49.25C59.81 49.37 59.8 49.49 59.8 49.59L59.78 49.81L64.13 49.97C64.21 49.97 64.29 49.96 64.36 49.93C64.44 49.9 64.48 49.83 64.52 49.75C64.55 49.7 64.58 49.61 64.62 49.46C64.65 49.31 64.67 49.21 64.68 49.13L64.95 49.13L64.84 51.7L64.58 51.68C64.58 51.62 64.56 51.5 64.56 51.36C64.55 51.2 64.54 51.11 64.51 51.05C64.48 50.98 64.44 50.9 64.38 50.86C64.31 50.82 64.23 50.8 64.13 50.79L59.76 50.62L59.74 50.85L59.74 51.14C59.74 51.25 59.74 51.37 59.76 51.47C59.76 51.56 59.81 51.65 59.89 51.75C59.98 51.84 60.08 51.93 60.19 52C60.3 52.08 60.42 52.16 60.55 52.23C60.67 52.29 60.78 52.33 60.87 52.35L60.85 52.62L59.38 52.57L59.56 47.83L61.03 47.9Z" fill="#FFFFFF" fill-opacity="1.000000" fill-rule="nonzero"/>
	</g>
	<g style="mix-blend-mode:normal">
		<path id="路径 23" d="M59.91 41.97C59.91 42 59.93 42.08 59.95 42.18C59.99 42.27 60.02 42.35 60.05 42.38C60.1 42.48 60.15 42.55 60.18 42.59C60.21 42.62 60.3 42.69 60.44 42.79C60.72 43.01 61 43.19 61.28 43.37C61.57 43.53 61.93 43.74 62.37 44.01C62.53 44.11 62.67 44.18 62.76 44.2C62.87 44.25 63.01 44.26 63.19 44.26L64.23 44.28C64.32 44.28 64.41 44.26 64.48 44.22C64.53 44.19 64.59 44.13 64.63 44.05C64.66 43.99 64.69 43.89 64.72 43.76C64.74 43.62 64.76 43.52 64.77 43.43L65.05 43.43L64.99 45.97L64.73 45.96C64.73 45.89 64.72 45.79 64.7 45.65C64.7 45.51 64.67 45.41 64.65 45.35C64.62 45.25 64.56 45.19 64.51 45.15C64.44 45.11 64.35 45.1 64.26 45.1L62.94 45.08C62.89 45.07 62.83 45.1 62.71 45.15C62.6 45.19 62.48 45.24 62.35 45.31C62.05 45.47 61.72 45.63 61.38 45.81C61.03 45.99 60.73 46.15 60.48 46.29C60.34 46.35 60.23 46.42 60.15 46.51C60.07 46.56 60.02 46.63 59.95 46.72C59.91 46.78 59.88 46.85 59.87 46.94C59.84 47.02 59.82 47.1 59.82 47.16L59.55 47.16L59.59 44.84L59.87 44.84C59.87 45.1 59.88 45.29 59.91 45.41C59.93 45.51 59.98 45.56 60.03 45.57C60.08 45.56 60.2 45.51 60.26 45.49C60.32 45.45 60.41 45.41 60.48 45.37C60.58 45.33 60.66 45.29 60.73 45.24C60.96 45.12 61.2 45.01 61.42 44.88C61.65 44.77 61.94 44.6 62.31 44.41C61.67 44.01 61.18 43.69 60.81 43.47C60.46 43.26 60.25 43.15 60.18 43.15C60.12 43.15 60.07 43.16 60.03 43.21C60 43.24 59.98 43.3 59.95 43.37C59.92 43.45 59.91 43.53 59.9 43.62C59.89 43.7 59.89 43.79 59.88 43.86L59.6 43.86L59.64 41.97L59.91 41.97Z" fill="#FFFFFF" fill-opacity="1.000000" fill-rule="nonzero"/>
	</g>
	<g style="mix-blend-mode:normal">
		<path id="路径 24" d="M32.97 64.39C32.77 64.39 32.6 64.48 32.45 64.64C32.29 64.8 32.23 65.02 32.23 65.28C32.23 65.51 32.29 65.71 32.44 65.85C32.57 66 32.76 66.07 32.96 66.07C33.17 66.07 33.34 66 33.48 65.85C33.62 65.71 33.68 65.5 33.68 65.24C33.68 64.98 33.62 64.78 33.46 64.63C33.34 64.48 33.16 64.39 32.97 64.39Z" fill="#FFFFFF" fill-opacity="1.000000" fill-rule="nonzero"/>
	</g>
	<g style="mix-blend-mode:normal">
		<path id="路径 25" d="M36.4 64.39C36.2 64.39 36.03 64.48 35.9 64.66C35.76 64.88 35.67 65.3 35.67 65.91C35.67 66.51 35.74 66.9 35.88 67.1C36.03 67.31 36.2 67.41 36.41 67.41C36.6 67.41 36.78 67.31 36.93 67.1C37.07 66.9 37.14 66.51 37.14 65.91C37.14 65.3 37.07 64.9 36.93 64.7C36.78 64.5 36.6 64.39 36.4 64.39Z" fill="#FFFFFF" fill-opacity="1.000000" fill-rule="nonzero"/>
	</g>
	<g style="mix-blend-mode:normal">
		<path id="路径 26" d="M56.74 28.63L13.37 28.63C13.31 28.64 13.33 28.7 13.3 28.75C13.26 34.32 13.32 40.06 13.3 45.48C13.26 50.98 14.05 55.95 15.84 59.86C17.59 63.73 20.47 66.52 23.73 68.86C27.06 71.22 31.21 72.48 35.05 74.46C38.87 72.47 43.01 71.22 46.32 68.81C49.58 66.45 52.53 63.74 54.27 59.83C55.99 55.9 56.77 51.07 56.77 45.41C56.77 39.95 56.81 34.15 56.74 28.63ZM23.31 53.25C26.26 51.72 29.21 50.04 31.52 47.81C29.99 48.19 28.76 48.23 27.5 48.22C27.71 47.88 28.06 47.67 28.33 47.4C30.28 45.58 32.46 43.84 33.52 41.09C32.8 41.33 31.91 41.53 30.94 41.53C32.84 39.1 34.33 36.24 35.12 32.72L35.23 32.72C36.01 36.26 37.53 39.08 39.42 41.53C38.58 41.48 37.87 41.44 36.89 41.06C36.93 41.47 37.15 41.86 37.33 42.21C38.26 43.94 39.77 45.31 41.18 46.63C41.75 47.16 42.36 47.62 42.86 48.22C41.3 48.36 40.59 48.23 38.88 47.78C39.44 48.44 40.17 48.93 40.84 49.46C42.68 50.96 44.87 52.08 47.08 53.25C47.26 53.34 47.53 53.4 47.59 53.63C45.76 53.89 43.72 53.75 41.75 53.12C39.33 52.28 37.04 52.23 35.34 53.82C33.45 52.29 31.58 52.27 28.56 53.07C26.83 53.61 24.58 53.85 22.77 53.63C22.83 53.38 23.12 53.34 23.31 53.25ZM30.02 67.71L29.56 67.71L29.56 64.84C29.45 64.96 29.31 65.05 29.13 65.14C28.96 65.25 28.81 65.33 28.66 65.39L28.66 64.96C28.92 64.83 29.13 64.68 29.32 64.52C29.51 64.34 29.65 64.18 29.72 64.03L30.02 64.03L30.02 67.71ZM34.03 66.92C33.92 67.2 33.77 67.41 33.57 67.55C33.36 67.7 33.13 67.78 32.87 67.78C32.57 67.78 32.34 67.7 32.16 67.53C31.98 67.38 31.86 67.16 31.82 66.86L32.25 66.82C32.29 67.03 32.37 67.18 32.48 67.27C32.57 67.37 32.71 67.41 32.87 67.41C33 67.41 33.13 67.37 33.24 67.31C33.34 67.25 33.42 67.16 33.49 67.05C33.56 66.94 33.61 66.8 33.66 66.63C33.7 66.45 33.73 66.27 33.73 66.07L33.73 65.97C33.64 66.13 33.52 66.25 33.35 66.33C33.2 66.42 33.02 66.47 32.85 66.47C32.55 66.47 32.29 66.35 32.08 66.14C31.86 65.91 31.75 65.62 31.75 65.26C31.75 64.9 31.86 64.59 32.09 64.36C32.31 64.14 32.59 64.03 32.91 64.03C33.16 64.03 33.36 64.09 33.57 64.21C33.77 64.34 33.92 64.52 34.03 64.77C34.12 65.01 34.18 65.34 34.18 65.8C34.18 66.27 34.12 66.64 34.03 66.92ZM37.47 66.94C37.38 67.21 37.26 67.42 37.08 67.55C36.9 67.7 36.67 67.78 36.41 67.78C36.05 67.78 35.77 67.65 35.57 67.39C35.32 67.1 35.2 66.6 35.2 65.91C35.2 65.46 35.25 65.12 35.34 64.86C35.43 64.59 35.56 64.39 35.74 64.25C35.91 64.09 36.14 64.03 36.41 64.03C36.6 64.03 36.78 64.07 36.93 64.14C37.08 64.21 37.2 64.34 37.3 64.48C37.4 64.64 37.46 64.82 37.52 65.03C37.58 65.25 37.6 65.54 37.6 65.91C37.6 66.33 37.55 66.68 37.47 66.94ZM41.02 67.71L38.59 67.71C38.59 67.61 38.6 67.49 38.65 67.41C38.71 67.24 38.81 67.07 38.95 66.91C39.08 66.75 39.28 66.57 39.54 66.35C39.93 66.02 40.2 65.78 40.35 65.57C40.49 65.39 40.56 65.21 40.56 65.03C40.56 64.86 40.49 64.71 40.36 64.59C40.24 64.46 40.07 64.39 39.86 64.39C39.65 64.39 39.47 64.46 39.34 64.59C39.22 64.73 39.15 64.91 39.15 65.13L38.67 65.09C38.71 64.75 38.83 64.48 39.04 64.3C39.24 64.11 39.52 64.03 39.88 64.03C40.23 64.03 40.51 64.12 40.71 64.32C40.92 64.52 41.02 64.76 41.02 65.05C41.02 65.18 40.99 65.34 40.93 65.48C40.87 65.62 40.76 65.78 40.63 65.94C40.49 66.09 40.26 66.3 39.93 66.57C39.66 66.8 39.49 66.96 39.41 67.03C39.34 67.12 39.27 67.2 39.22 67.29L41.02 67.29L41.02 67.71ZM37.31 57.47L37.42 58.44L33.21 58.44L33.34 57.47L20.13 57.47L21.78 55.45C23.18 55.37 25.87 55.02 28.18 54.16C32.67 52.48 35.39 54.78 35.39 54.78C37.54 52.98 40.24 53.36 42.73 54.28C45.08 55.14 48.67 55.4 48.67 55.4L50.22 57.47L37.31 57.47Z" fill="#FFFFFF" fill-opacity="1.000000" fill-rule="nonzero"/>
	</g>
	<g style="mix-blend-mode:normal">
		<path id="路径 27" d="M124.25 5.2C124.42 5.25 124.46 5.05 124.34 5.03C126.28 5.39 126.89 7.86 129.11 8.23C131.21 10.47 128.4 13.19 128.41 15.44C129.48 16.88 131.37 15.37 132.41 15.62C132.64 15.67 133.17 16.01 133.36 16.31C134.52 18.14 133.48 20.91 131.37 21.26C130.93 21.63 130.58 22.09 129.89 22.22C127.64 25.17 124.4 27.13 121.9 29.85C120.93 31.64 119.32 32.77 118.17 34.37C116.47 35.06 116.46 37.89 116.18 39.92C116.03 40.97 115.52 41.81 116.44 42.18C118.06 41.48 119.02 40.13 120 38.8C121.42 37.93 122.29 36.52 123.56 35.49C124.6 33.9 125.88 32.56 126.94 30.98C128.43 30.16 129.38 28.78 130.41 27.51C131.85 26.86 132.22 25.15 133.54 24.39C135.01 24.65 136.01 23.59 137.27 23.94C137.81 24.11 138.4 25.12 138.83 25.51C139.51 26.12 140.65 26.82 141.35 27.42C141.68 27.81 141.9 28.39 142.22 28.89C142.58 29.46 143.41 30.08 143.35 30.81C143.3 31.31 142.87 32.5 142.64 33.06C142.46 33.55 142.4 34.71 142.22 35.23C142 35.86 141.52 36.2 141.35 37.15C141.24 37.76 141.27 38.42 141.09 39.05C140.76 40.2 140.68 41.57 140.57 43.31C140.5 44.38 140.28 45.29 140.05 46.35C139.77 47.6 140.05 48.57 139.97 49.99C139.94 50.31 139.75 50.34 139.7 50.61C139.64 50.96 139.84 51.45 139.79 51.81C139.75 52.08 139.57 52.32 139.53 52.6C139.35 53.83 139.64 55.51 139.61 56.85C139.61 57.28 139.57 57.92 139.61 58.24C139.72 58.95 140.12 59.74 140.22 61.01C140.31 61.99 140.44 63.47 140.31 63.96C140.16 64.51 138.8 65.4 138.31 65.97C137.57 66.84 137.06 67.58 136.67 68.3C134.63 68.3 134.63 70.34 132.85 70.56C131.85 69.23 131.55 66.77 129.37 66.92C128.2 65.86 127.29 64.54 125.47 64.15C124.08 65.69 125.56 68.23 125.03 70.22C124.51 72.16 121.91 72.69 122.08 74.9C121.54 75.44 120.86 75.86 119.91 75.58C119.83 73.86 118.09 72.71 118.01 70.99C117.71 70.42 117.11 70.15 116.62 69.78C116.08 69.85 115.51 70.36 114.87 70.3C114.12 70.24 112.97 69.17 112.97 68.74C112.97 67.72 116.04 66.8 116.79 65.54C117.74 63.9 117.23 61.96 116.18 60.84C114.99 60.27 114.25 61.99 113.05 61.36C112.81 60.13 114.29 59.86 114.27 58.76C114.24 57.7 112.94 56.92 112.44 55.97C112.1 55.79 111.57 56 111.31 55.89C110.46 56.83 109.74 57.9 108.88 58.85C107.72 59.22 106.48 58.86 105.59 59.71C104.84 60.42 104.28 61.77 103.76 63.01C103.39 63.93 102.94 64.87 102.99 65.8C102.92 66.11 102.63 66.19 102.63 66.57C102.68 67.21 103.69 67.67 103.42 68.04C104.69 68.42 105.67 69.1 106.46 69.95C106.33 70.77 107.04 71.49 107.23 72.21C107.76 74.04 106.81 75.64 106.19 76.89C104.74 77.61 103.46 77.39 101.94 76.89C100.41 75.43 98.45 73.29 97.43 71.17C97.07 70.42 97.38 69.3 97.25 68.23C97.2 67.78 96.97 67.45 97.08 67.01C96.18 64.8 96.1 61.54 96.57 58.93C96.66 58.4 96.84 57.75 97.34 57.46C97.67 57.54 97.65 57.95 97.95 58.06C97.85 58.67 98.25 59.17 98.47 59.71C98.51 60.54 98.82 61.38 99.34 61.97C101.62 60.73 102.54 58.33 103.67 56.16C105.44 54.97 106.07 52.75 107.76 51.46C108.21 51.12 108.39 51.03 108.88 50.77C109.29 50.57 109.51 50.37 109.76 49.99C109.86 48.73 109.18 48.18 109.67 47.04C110.72 46.03 112.76 46.48 113.39 44.78C113 43.31 113.5 41.29 111.92 40.97C111.48 40.87 111.17 41.2 110.8 41.22C109.63 41.29 109.03 40.46 108.19 40.1C106.96 39.56 105.84 40.03 104.46 39.92C104.08 39.44 103.84 38.81 103.59 38.18C103.96 37.4 104.36 36.65 105.07 36.19C105.34 36.15 105.41 36.32 105.59 36.36C106.35 35.97 106.56 35.03 107.59 34.89C108.31 33.58 109.58 32.83 110.27 31.5C112.02 30.5 113.43 28.88 115.22 27.95C115.84 27.62 116.62 27.58 116.87 26.82C116.78 25.98 117.05 25.47 117.05 24.64C117.05 24.12 117.33 23.69 117.39 23.16C117.54 21.98 117.28 20.44 117.22 19.27C117.12 17.18 117.67 14.98 117.65 12.84C117.91 12.6 118.02 12.22 118.26 11.97C118.45 9.8 118.84 7.52 118.43 5.2C118.24 4.06 117.58 3.11 117.82 1.99C118.01 1.19 118.62 0.69 119.13 0.07C121.34 -0.18 123.09 0.15 123.81 1.73C123.36 2.9 123.88 4.44 124.25 5.2ZM130.07 62.92C130.31 62.74 130.45 62.44 130.67 62.23C130.67 60.23 130.59 57.62 130.67 55.89C130.7 55.34 130.58 54.73 130.59 54.17C130.62 52.32 131.07 50.48 131.02 48.68C130.99 47.5 130.76 46.36 131.02 45.22C131.26 44.16 131.66 43.28 131.63 42.18C131.6 41.51 131.35 40.89 131.37 40.27C131.41 38.74 131.96 37.38 132.15 35.76C132.17 35.54 131.98 35.35 131.98 35.15C131.96 33.91 132.49 32.52 132.15 31.25C132.03 31.15 131.37 30.13 130.93 30.54C129.84 31.6 128.18 33.41 127.03 34.79C126.43 35.52 125.67 36.41 125.47 37.31C125.11 38.87 126.86 38.87 127.46 39.75C128.05 40.6 127.84 41.06 127.89 42.27C127.34 42.46 127.18 43.21 126.67 43.74C126.47 43.97 126.11 44.1 125.9 44.35C125.03 45.38 124.97 46.85 124.34 48.17C123.75 49.37 122.61 50.69 122.52 51.81C122.39 53.27 123.69 54.2 123.73 55.64C123.52 56.23 122.79 56.67 123.03 57.46C123.48 57.84 124.2 57.97 124.95 58.06C126.47 59.1 124.95 61.57 125.2 62.83C126.82 63.11 128.53 63.08 130.07 62.92ZM119.65 42.27C119.64 43.34 118.83 43.84 118.78 44.61C118.32 44.83 117.75 45 117.48 45.39C117.35 45.57 117.45 45.96 117.3 46.26C117.17 46.52 116.95 46.53 116.87 46.77C116.64 47.51 116.73 48.46 116.62 49.38C117.79 50.73 116.49 52.64 116.87 54.68C117.29 55.06 117.92 55.91 118.7 55.81C120.11 55.6 119.29 52.41 119.91 51.38C120.25 50.81 120.7 50.39 120.87 49.55C121 48.89 120.82 48 121.04 47.3C121.15 46.94 121.46 46.63 121.56 46.26C121.88 45.04 121.8 43.69 122.17 42.53C121.74 41.77 120.24 41.43 119.65 42.27Z" fill="#FFFFFF" fill-opacity="1.000000" fill-rule="evenodd"/>
	</g>
	<g style="mix-blend-mode:normal">
		<path id="路径 28" d="M329.1 6.06C328.62 7.64 329.27 9.48 328.14 10.4C327.89 10.61 327.6 10.61 327.37 10.76C326.92 11.05 326.73 11.54 326.24 11.8C325.35 12.08 324.42 11.72 323.72 11.97C323.03 12.22 322.81 13.09 322.59 13.88C321.44 15.21 320.8 16.5 320.33 18.48C321.38 19.93 324.06 20.44 323.54 22.91C321.38 23.81 320.56 26.23 321.29 28.81C321.5 29.54 322.35 30.82 323.11 30.98C323.36 31.03 323.8 30.87 324.16 30.89C324.68 30.93 325.9 31.56 326.49 31.5C327.08 31.44 327.39 30.95 327.8 30.64C327.8 28.46 330.58 25.28 326.85 25.34C325.96 24.62 326.13 22.68 326.07 21.61C325.65 21.28 325.65 20.77 325.37 20.39C324.86 19.71 323.94 19.56 323.19 19.09C323.77 17.08 325.96 17.86 327.89 17.62C329.13 18.7 329.34 20.59 329.37 22.3C329.45 22.53 329.77 22.54 329.88 22.74C331.67 21.37 332.06 18.61 333.09 16.49C333.11 15.25 333.75 14.35 334.05 13.18C334.13 12.84 334.04 12.47 334.13 12.15C334.36 11.37 334.94 10.61 334.92 9.88C334.89 9.15 334.28 8.56 333.96 7.89C334.3 5.89 336.83 6.09 338.04 4.94C338.66 5.25 339.43 5.4 339.77 5.98C339.74 6.38 339.5 6.58 339.43 6.94C339.59 8.22 341.08 8.36 340.99 9.54C340.95 10.06 340.23 10.41 339.86 10.94C339.07 12.03 339.25 13.66 338.22 14.31C337.69 16.07 336.32 17.55 335.44 19.35C335.22 19.79 335.21 20.27 335 20.75C334.64 21.55 333.79 22.05 333.27 22.82C332.07 24.62 331.63 26.79 330.66 28.73C330.57 29.88 329.96 30.7 330.32 31.76C330.92 32.39 331.69 31.56 332.57 31.67C333.77 30.67 333.91 28.23 335.78 27.95C336.05 27.9 336.39 27.97 336.74 27.95C337.13 27.91 337.48 27.67 337.69 27.68C338.04 27.7 338.3 27.98 338.65 28.12C339.36 28.39 340.29 28.5 340.65 29.16C340.87 29.96 340.21 30.22 339.86 30.72C339.61 31.09 339.57 31.56 339.35 31.94C338.98 32.52 338.37 33.02 337.96 33.67C337.07 35.01 336.23 36.27 335.53 37.75C334.02 38.95 332.93 41 330.75 41.22C328.84 42.55 326.72 43.68 325.89 46.08C326.28 47.13 327.19 47.22 328.32 47.56C329.6 47.95 330.66 48.63 330.4 50.34C331.67 50.55 332.36 50.07 333.53 50.25C336.05 50.63 335.32 54.07 333.88 55.2C333.74 55.3 333.7 55.71 333.61 55.81C333.16 56.32 332.49 56.85 332.23 56.85C331.92 56.86 331.66 56.47 331.36 56.41C331.16 56.37 331.11 56.58 330.84 56.58C330.63 56.59 330.35 56.4 330.23 56.41C328.89 56.47 327.67 57.43 326.49 57.02C325.97 57.73 325.31 58.9 325.19 59.89C325.02 61.3 325.89 61.29 326.41 62.14C326.53 62.33 326.47 62.62 326.59 62.83C327.18 64.04 328.64 64.89 328.93 65.88L328.93 66.75C329.95 67.42 329.88 68.82 330.49 70.05C331.07 71.22 332.64 72.13 332.31 74.12C331.97 76.15 329.64 76.52 328.32 77.77C327.33 77.82 326.33 77.84 325.54 77.51C324.82 76.33 323.69 75.29 322.25 75.25C321.46 75.23 320.65 75.97 319.64 75.86C319.48 75.84 319.37 75.6 319.2 75.58C318.99 75.58 318.76 75.79 318.6 75.77C316.91 75.64 315.56 75.46 314.18 74.56C314.26 74.03 313.97 73.89 313.91 73.51C315.61 72.14 318.59 73.03 320.59 72.74C321.67 71.87 323.36 72.04 324.58 71.43C325 69.71 323.74 68.92 323.29 67.78C323.29 67.4 323.4 67.43 323.29 67.18C322.17 64.4 324.58 60.78 322.15 58.93C319.8 60.55 317.48 62.93 316.26 65.97C314.1 67.25 312.21 68.99 310.69 71.09C310.29 71.65 309.88 72.92 309.31 73.42C308.71 73.97 307.08 74.68 306.36 74.82C305.66 74.95 304.94 74.49 304.19 74.9C303.32 74.67 302.06 74.41 300.8 74.21C299.65 74.02 297.99 73.33 298.11 72.13C298.14 71.76 299.01 70.31 299.41 70.05C300.23 69.51 301.64 69.6 302.62 69.26C303.04 69.13 303.26 68.78 303.67 68.83C305 67.67 306.34 66.52 307.83 65.54C308.03 65.15 308.38 64.91 308.53 64.5C309.21 63.84 310.09 63.38 310.53 62.49C311.18 61.97 311.8 61.54 312.52 61.2C314.52 60.23 316.15 58.45 318.16 57.28C318.38 57.45 318.69 57.17 318.95 57.11C320.18 55.96 321.14 54.55 321.46 52.51C323.44 51.22 321.58 49.55 320.42 48.52C320.88 47.86 322.18 47.56 322.94 46.95C324.02 46.09 324.75 44.72 325.63 43.48C326.25 42.6 328.41 39.66 327.97 38.1C327.48 36.33 324.33 37.81 324.16 39.14C322.33 39.77 321.44 41.36 319.9 42.27C317.65 44.24 315.57 46.39 313.13 48.17C312.93 48.34 312.89 48.68 312.7 48.87C311.18 49.86 309.4 48.85 307.48 49.38C306.85 48.91 306.02 48.65 305.75 47.82C307.12 46.72 308.3 45.38 310.18 45.22C310.99 44.96 311.5 44.2 312.17 43.74C312.37 43.61 312.7 43.61 312.96 43.48C313.35 43.29 313.48 43.16 313.99 42.96C314.89 42.62 315.52 41.87 316.43 41.31C317.41 40.71 318.64 40.35 319.56 39.75C320.03 39.43 320.47 38.65 321.03 38.28C321.5 37.95 322.15 37.92 322.76 37.67C323.98 37.17 325.76 36.13 325.97 35.23C326.34 33.69 324.92 32.88 324.06 32.11C323.03 32.18 322.31 33.32 321.29 33.33C320.78 33.33 320.69 33 320.25 32.8C319.73 32.58 318.98 32.69 318.78 32.11C318.35 32.44 318.09 32.1 317.73 31.94C316.66 32.96 316.63 34.54 315.82 35.76C314.87 36.27 313.73 38.17 312.7 36.8C313.73 35.29 314.66 33.66 315.65 32.11C315.17 31 314.71 28.12 313.21 29.41C313.76 31.42 312.74 32.85 311.48 33.75C311.1 33.72 310.84 33.36 310.44 33.41C308.99 33.6 309.78 35.8 309.65 36.8C309.59 37.37 308.33 39.58 307.66 39.83C307.35 39.96 306.79 39.83 306.36 39.92C305.76 39.58 305.01 39.08 304.19 39.23C303.77 38.46 303.23 37.98 303.4 37.15C303.54 36.58 304.3 36.26 304.36 35.76C304.4 35.36 304.11 34.9 303.75 34.44C303.13 33.66 302.83 33.02 302.37 32.11C302.82 31.26 303.81 30.95 303.84 29.68C305.91 29.74 306.97 31.87 308.53 32.97C309.29 32.85 309.21 31.93 309.39 31.33C309.61 30.64 310.04 30.35 309.65 29.5C309.54 29.24 309.21 29.07 309.04 28.81C308.89 28.56 308.88 28.15 308.7 27.86C308.47 27.44 308.09 27.35 308.09 26.73C307.26 26.42 306.56 24.95 305.67 24.64C305.1 24.47 304.69 24.84 304.1 24.55C304.63 23.68 305.17 22.8 305.67 21.86C307.24 21.09 307.77 22.63 308.88 22.82C309.27 22.39 309.16 21.96 309.22 21.17C309.5 21 309.57 20.6 309.83 20.39C310.77 19.62 312.08 20.1 313.31 19.87C314.97 19.56 316.12 18.78 317.38 18.05C317.7 17.55 317.85 16.91 318.16 16.4C318.25 13.69 319.78 11.51 319.73 8.76C319.7 7.41 318.95 5.55 319.73 4.33C319.75 4.03 319.66 3.63 319.81 3.47C320.65 2.62 321.37 1.67 322.59 1.2C323.39 1.83 324.44 2.2 325.02 3.03C325.42 3.13 325.56 3.48 326.07 3.47C326.26 3.97 327.16 4.63 327.89 4.59C328.18 5.2 328.72 5.55 329.1 6.06ZM312.44 26.73C313.09 25.59 314.49 24.81 314.26 23.09C313.7 22.53 312.99 22.64 312.52 22.04C311.29 21.86 309.77 21.73 309.65 22.82C309.64 23.03 310.29 24.68 310.44 24.91C310.61 25.15 310.99 25.29 311.13 25.51C311.41 25.95 311.27 26.53 311.65 26.73C312.01 26.72 312.14 26.88 312.44 26.73ZM316.69 22.3C315.59 23.21 315.1 24.58 314.35 25.85C313.99 26.46 313.4 27.27 313.48 27.68C313.68 28.75 314.87 28.06 315.82 27.95C316.87 27.81 317.65 27.86 317.99 27.16C317.66 25.59 318.56 24.01 317.73 22.56C317.39 22.47 317.06 22.36 316.69 22.3Z" fill="#FFFFFF" fill-opacity="1.000000" fill-rule="evenodd"/>
	</g>
	<g style="mix-blend-mode:normal">
		<path id="路径 29" d="M261.05 25.77C261.67 25.66 262.3 26.18 262.87 26.29C263.62 26.44 264.09 26.31 264.87 26.64C266.16 27.19 266.93 28.03 265.83 29.41C265.34 30.02 264.42 30.22 264 30.72C262.54 30.97 260.7 31.59 259.66 32.55C257.44 33.29 255.37 34.5 253.41 35.23C253.2 35.18 253.01 35.1 252.72 35.15C252.32 35.27 252.15 35.63 251.67 35.67C250.45 37.39 250.72 40.1 249.94 42.1C250.1 42.63 250.08 43.58 249.76 43.91C249.45 49.35 247.06 53.85 243.69 56.76C243.59 56.84 243.46 56.87 243.26 56.85C240.4 59.73 237.38 62.37 233.18 63.7C233.01 63.77 232.99 63.97 232.83 64.05C231.46 64.26 230.08 65.32 228.76 65.35C228.2 65.37 227.56 65.27 226.93 65.27C226.39 65.27 225.71 65.58 225.37 65.1C225.35 64.69 225.83 64.73 226.07 64.57C226.28 64.43 226.46 64.18 226.67 64.05C228.09 63.19 229.71 62.53 231.1 61.62C232.91 60.44 234.46 58.94 236.31 57.88C240.2 54.22 243.78 49.75 245.6 44.52C245.65 43 246.85 40.39 245.34 39.4C243.66 39.83 243.08 41.37 241.43 41.83C241.25 42.31 240.82 42.56 240.66 43.05C238.38 44.33 236.81 46.32 235.01 48.08C233.9 47.96 233.51 47.14 232.93 46.52C230.81 45.56 229.51 43.81 227.98 42.27C228.32 41.26 229.6 41.17 230.15 40.35C230.98 40.53 231.92 40.63 232.66 40.35C233.07 40.2 233.33 39.78 233.7 39.58C234.14 39.34 234.7 39.32 235.18 39.14C235.51 39.02 235.72 38.74 236.04 38.62C236.59 38.42 237.28 38.35 237.96 38.1C239.18 37.63 240.18 36.78 241.43 36.61C243.11 36.4 244.11 35.16 246.04 35.06C247.71 33.91 246.25 31.09 246.98 28.89C246.64 23.59 248.09 18.88 246.81 14.31C246.36 14.02 246.21 13.43 246.04 12.84C246.86 11.22 247.95 9.64 250.11 9.63C251.35 10.57 252.94 11.87 254.62 12.66C254.98 13.76 256.39 14.29 255.75 15.7C255.43 16.41 254.53 16.86 254.02 17.62C253.17 18.86 253.41 20.25 252.97 21.78C252.49 22.29 252.66 23.36 252.45 24.3C252.41 24.51 252.17 24.72 252.11 25C251.81 26.34 251.89 28.28 251.76 29.5C251.68 30.21 251.37 31.05 251.5 31.59C251.8 32.82 253.5 32.47 254.54 31.94C255.23 30.89 256.81 30.13 258.44 29.41C260.14 28.69 262.51 27.14 261.05 25.77Z" fill="#FFFFFF" fill-opacity="1.000000" fill-rule="evenodd"/>
	</g>
	<g style="mix-blend-mode:normal">
		<path id="路径 30" d="M183.8 10.58C184.67 10.85 185.94 10.32 186.57 9.8C186.85 9.96 187.15 9.72 187.44 9.98C188.57 9.46 191.07 10.18 192.22 10.94C192.58 11.17 193.19 11.9 193.26 12.15C193.41 12.71 193.05 13.18 193.08 13.54C193.17 14.47 193.66 15.05 193.34 15.97C193.21 16.34 192.72 16.81 192.39 16.91C190.76 17.44 188.91 15.36 187.1 16.49C186.11 16.29 185.38 15.45 185.53 14.41C185.23 13.33 182.69 13.21 182.58 12.15C182.5 11.39 183.35 11.11 183.8 10.58Z" fill="#FFFFFF" fill-opacity="1.000000" fill-rule="evenodd"/>
	</g>
	<g style="mix-blend-mode:normal">
		<path id="路径 31" d="M169.47 32.46C169.71 31.36 171.89 30.27 173.21 29.68C173.62 29.49 174.16 29.41 174.6 29.34C174.95 29.08 175.37 28.88 175.81 28.73C179.01 25.95 182.87 23.81 187.01 22.3C187.36 22.17 187.8 21.97 188.13 21.78C188.36 21.65 188.44 21.43 188.65 21.26C189.54 20.63 190.81 20.36 191.78 19.87C192.24 19.63 192.71 19.42 193.17 19.17C193.55 18.97 193.83 18.56 194.2 18.31C194.59 18.05 195.08 17.95 195.43 17.71C196.12 17.19 196.61 16.35 197.33 15.88C197.81 15.56 198.45 15.36 198.99 15.1C199.45 14.86 199.96 14.69 200.38 14.48C201.39 15 202.56 15.36 203.24 16.22C203.32 17.53 202.13 18.39 201.24 19.17C200.91 19.47 200.71 19.97 200.38 20.22C199.57 20.83 198.55 21.17 197.42 21.35C196.48 21.5 195.58 22.12 194.39 21.86C193.69 22.52 192.69 22.57 191.95 23.09C191.43 23.44 190.88 24.09 190.39 24.55C188.89 26.01 187.14 27.32 185.61 28.81C184.62 29.02 183.95 30.11 183.01 31.06C181.96 32.14 180.74 32.81 180.15 34.28C179.46 34.79 179.18 34.8 178.06 34.79C175.88 34.79 173.74 35.41 171.9 34.2C171.64 34.02 171.61 33.69 171.38 33.5C170.81 33.02 169.9 33.14 169.47 32.46Z" fill="#FFFFFF" fill-opacity="1.000000" fill-rule="evenodd"/>
	</g>
	<g style="mix-blend-mode:normal">
		<path id="路径 32" d="M200.99 31.67C201.01 33.74 198.91 34.84 197.77 36.28C196.31 36.69 195.43 37.69 195.08 39.23C195.84 40.21 196.89 38.59 197.77 39.23C198.19 40.39 197.84 41.93 197.25 42.62C196.64 42.55 196.59 43.05 196.3 43.31C196.09 43.33 195.96 43.29 195.86 43.22C195.13 44.28 193.51 44.46 192.73 45.48C191.18 45.61 189.1 46.23 188.31 44.96C187.83 42.17 189.88 41.47 190.57 39.58C191.38 39.13 191.99 38.45 192.22 37.4C192.66 36.78 193.91 35.9 193.86 34.79C193.83 33.92 192.99 33.47 192.04 33.75C191.33 33.99 190.3 35.28 189.7 35.93C188.91 36.78 188.23 37.64 187.71 38.35C187.32 38.59 186.7 38.57 186.57 39.05C185.83 38.84 184.6 39.11 183.97 38.8C183.1 37.75 184.58 37.12 185.44 36.44C185.78 36.19 186.07 35.98 186.4 35.76C187.17 35.2 187.83 34.59 188.74 34.02C189.26 33.69 189.84 33.45 190.3 33.15C190.78 32.85 191.1 32.42 191.43 32.2C192.49 31.5 193.99 31.38 194.39 30.11C195.57 29.63 196.77 29.09 197.86 29.77C198.54 30.19 198.89 30.97 199.51 31.25C200.01 31.47 200.67 31.24 200.99 31.67Z" fill="#FFFFFF" fill-opacity="1.000000" fill-rule="evenodd"/>
	</g>
	<g style="mix-blend-mode:normal">
		<path id="路径 33" d="M176.68 40.18C177.53 39.24 178.75 38.06 180.67 38.62C182.77 39.23 184.54 42.85 184.66 44.96C184.7 45.69 184.43 47.06 184.14 47.47C183.93 47.78 183.35 48.03 182.93 48.34C182.37 48.74 181.98 49.33 180.93 49.13C180.11 48.96 177.61 46.77 177.37 45.82C177.24 45.33 177.49 44.89 177.46 44.43C177.34 42.97 176.12 41.76 176.68 40.18Z" fill="#FFFFFF" fill-opacity="1.000000" fill-rule="evenodd"/>
	</g>
	<g style="mix-blend-mode:normal">
		<path id="路径 34" d="M278.67 56.32C278.25 58.14 275.99 57.93 274.51 58.76C273.81 59.16 273.12 59.93 272.24 60.41C271.11 61.01 269.76 60.81 268.69 61.45C266.79 61.67 265.99 60.98 264.69 59.89C263.22 58.65 262.32 57.48 261.22 55.9C260.43 54.75 259.48 54.17 259.23 52.86C257.1 49.82 254.92 46.35 254.19 42.43C253.48 41.42 253.68 40.05 253.14 38.88C255.11 38.52 254.98 40.89 256.36 41.4C256.75 42.2 257.41 42.72 258.01 43.31L258.01 43.65C259.5 45.04 260.45 46.94 262 48.26C261.93 48.5 262.13 48.48 262.09 48.68C263.95 50.33 266.2 51.58 268.17 53.11C269.65 53.13 270.29 54.17 271.46 54.59C273.63 54.19 275.06 55.26 277.19 55.37C277.6 55.78 278.24 55.95 278.67 56.32Z" fill="#FFFFFF" fill-opacity="1.000000" fill-rule="evenodd"/>
	</g>
	<g style="mix-blend-mode:normal">
		<path id="路径 35" d="M294.21 63.1C294.19 62.65 294.59 62.62 294.72 62.31C294.95 61.18 294.65 59.82 295.6 59.28C295.78 57.87 296.96 57.03 296.9 55.55C296.83 53.95 295.88 52.37 295.69 50.86C296.37 49.91 297.55 48.71 298.89 49.48C299.06 49.55 299.41 49.88 299.68 50.07C300.79 50.94 302.17 52.73 302.98 53.55C303.61 55.78 303.49 57.56 303.58 59.71C302.89 62.33 301.02 64.03 298.21 63.79C296.75 64.83 295.44 63.5 294.21 63.1Z" fill="#FFFFFF" fill-opacity="1.000000" fill-rule="evenodd"/>
	</g>
	<g style="mix-blend-mode:normal">
		<path id="路径 36" d="M195.08 64.31C194.72 62.02 194.87 59.51 195 57.28C195.02 56.73 195.07 56.05 195.17 55.55C195.24 55.12 195.53 54.85 195.52 54.42C195.46 53.13 194.33 51.85 195.34 50.61C195.41 50.59 195.43 50.51 195.52 50.51C198.3 50.9 199.78 52.75 200.81 55.81C201.31 57.31 202.14 58.77 202.29 60.14C202.45 61.71 201.57 62.83 201.16 63.97C200.45 64.28 199.93 65.01 199.33 65.44C199.03 65.65 198.47 66 197.94 65.97C196.87 65.86 196.24 64.42 195.08 64.31Z" fill="#FFFFFF" fill-opacity="1.000000" fill-rule="evenodd"/>
	</g>
	<g style="mix-blend-mode:normal">
		<path id="路径 37" d="M166.78 63.7C167.44 62.36 168.52 61.68 169.91 61.54C170.71 61.45 171.58 61.6 172.51 61.1C173.15 60.39 173.83 60.43 174.68 60.14C175.93 59.74 176.74 59.08 177.54 58.41C177.79 58.21 178.04 58.31 178.33 58.15C178.84 57.88 179.25 57.34 179.89 57.28C180.09 57.19 180.21 57.02 180.24 56.76C181.41 56.5 182.85 55.33 184.32 55.37C184.45 55.25 184.72 55.26 184.83 55.11C186.74 55.82 187.46 52.86 186.66 51.29C186.79 50.9 186.89 50.46 186.66 50.16C187.13 49.14 187.56 48.06 188.83 47.82C189.05 47.98 189.21 48.19 189.53 48.26C191.55 50.45 191.12 53.98 191.09 57.63C191.05 60.61 191.72 63.53 191.7 66.31C190.72 67.06 189.84 70.01 188.48 70.13C187.91 70.18 187.71 69.61 187.27 69.61C186.65 68.49 186.2 67.2 185.7 65.97C183.98 64.43 183.29 61.84 181.28 60.58C180.39 61.49 179.44 62.33 179.11 63.79C178.6 64.06 178.36 64.62 177.9 64.91C176.87 67.43 174.57 69.13 173.38 71.17C172.82 71.2 172.25 71.87 171.47 71.78C171.08 71.73 170.99 71.41 170.69 71.26C170.01 70.92 169.12 71 168.61 70.64C167.98 70.23 167.83 68.74 167.74 68.04C167.54 66.43 167.65 64.78 166.78 63.7ZM183.8 57.11C183.48 57.2 183.28 58.2 183.01 58.66C182.72 59.21 182.3 59.53 182.23 59.89C181.9 61.54 183.58 61.49 184.49 62.06C184.86 62.29 185.06 62.77 185.36 62.83C185.84 62.94 186.07 62.7 186.49 62.58C187.69 60.2 187.27 57.78 186.4 55.37C184.91 55.1 184.24 56.97 183.8 57.11Z" fill="#FFFFFF" fill-opacity="1.000000" fill-rule="evenodd"/>
	</g>
</svg>
